%TF.GenerationSoftware,KiCad,Pcbnew,7.0.5-7.0.5~ubuntu22.04.1*%
%TF.CreationDate,2025-02-26T12:57:44+00:00*%
%TF.ProjectId,PBA0019-T50-6-trap,50424130-3031-4392-9d54-35302d362d74,1.0*%
%TF.SameCoordinates,Original*%
%TF.FileFunction,Legend,Top*%
%TF.FilePolarity,Positive*%
%FSLAX46Y46*%
G04 Gerber Fmt 4.6, Leading zero omitted, Abs format (unit mm)*
G04 Created by KiCad (PCBNEW 7.0.5-7.0.5~ubuntu22.04.1) date 2025-02-26 12:57:44*
%MOMM*%
%LPD*%
G01*
G04 APERTURE LIST*
%ADD10C,0.120000*%
%ADD11C,0.150000*%
G04 APERTURE END LIST*
D10*
X145852325Y-125900000D02*
G75*
G03*
X145852325Y-125900000I-8602325J0D01*
G01*
X140855551Y-125900000D02*
G75*
G03*
X140855551Y-125900000I-3605551J0D01*
G01*
X149852325Y-104400000D02*
G75*
G03*
X149852325Y-104400000I-8602325J0D01*
G01*
X144855551Y-104400000D02*
G75*
G03*
X144855551Y-104400000I-3605551J0D01*
G01*
X150852325Y-71900000D02*
G75*
G03*
X150852325Y-71900000I-8602325J0D01*
G01*
X145855551Y-71900000D02*
G75*
G03*
X145855551Y-71900000I-3605551J0D01*
G01*
X112352325Y-82400000D02*
G75*
G03*
X112352325Y-82400000I-8602325J0D01*
G01*
X107355551Y-82400000D02*
G75*
G03*
X107355551Y-82400000I-3605551J0D01*
G01*
X134352325Y-87400000D02*
G75*
G03*
X134352325Y-87400000I-8602325J0D01*
G01*
X129355551Y-87400000D02*
G75*
G03*
X129355551Y-87400000I-3605551J0D01*
G01*
D11*
%TO.C,H2*%
X157863095Y-55529819D02*
X157863095Y-54529819D01*
X157863095Y-55006009D02*
X158434523Y-55006009D01*
X158434523Y-55529819D02*
X158434523Y-54529819D01*
X158863095Y-54625057D02*
X158910714Y-54577438D01*
X158910714Y-54577438D02*
X159005952Y-54529819D01*
X159005952Y-54529819D02*
X159244047Y-54529819D01*
X159244047Y-54529819D02*
X159339285Y-54577438D01*
X159339285Y-54577438D02*
X159386904Y-54625057D01*
X159386904Y-54625057D02*
X159434523Y-54720295D01*
X159434523Y-54720295D02*
X159434523Y-54815533D01*
X159434523Y-54815533D02*
X159386904Y-54958390D01*
X159386904Y-54958390D02*
X158815476Y-55529819D01*
X158815476Y-55529819D02*
X159434523Y-55529819D01*
%TO.C,H4*%
X181063095Y-55529819D02*
X181063095Y-54529819D01*
X181063095Y-55006009D02*
X181634523Y-55006009D01*
X181634523Y-55529819D02*
X181634523Y-54529819D01*
X182539285Y-54863152D02*
X182539285Y-55529819D01*
X182301190Y-54482200D02*
X182063095Y-55196485D01*
X182063095Y-55196485D02*
X182682142Y-55196485D01*
%TO.C,C1*%
X169833333Y-65359580D02*
X169785714Y-65407200D01*
X169785714Y-65407200D02*
X169642857Y-65454819D01*
X169642857Y-65454819D02*
X169547619Y-65454819D01*
X169547619Y-65454819D02*
X169404762Y-65407200D01*
X169404762Y-65407200D02*
X169309524Y-65311961D01*
X169309524Y-65311961D02*
X169261905Y-65216723D01*
X169261905Y-65216723D02*
X169214286Y-65026247D01*
X169214286Y-65026247D02*
X169214286Y-64883390D01*
X169214286Y-64883390D02*
X169261905Y-64692914D01*
X169261905Y-64692914D02*
X169309524Y-64597676D01*
X169309524Y-64597676D02*
X169404762Y-64502438D01*
X169404762Y-64502438D02*
X169547619Y-64454819D01*
X169547619Y-64454819D02*
X169642857Y-64454819D01*
X169642857Y-64454819D02*
X169785714Y-64502438D01*
X169785714Y-64502438D02*
X169833333Y-64550057D01*
X170785714Y-65454819D02*
X170214286Y-65454819D01*
X170500000Y-65454819D02*
X170500000Y-64454819D01*
X170500000Y-64454819D02*
X170404762Y-64597676D01*
X170404762Y-64597676D02*
X170309524Y-64692914D01*
X170309524Y-64692914D02*
X170214286Y-64740533D01*
%TO.C,L1*%
X164083333Y-54954819D02*
X163607143Y-54954819D01*
X163607143Y-54954819D02*
X163607143Y-53954819D01*
X164940476Y-54954819D02*
X164369048Y-54954819D01*
X164654762Y-54954819D02*
X164654762Y-53954819D01*
X164654762Y-53954819D02*
X164559524Y-54097676D01*
X164559524Y-54097676D02*
X164464286Y-54192914D01*
X164464286Y-54192914D02*
X164369048Y-54240533D01*
X169166666Y-55454819D02*
X168833333Y-54978628D01*
X168595238Y-55454819D02*
X168595238Y-54454819D01*
X168595238Y-54454819D02*
X168976190Y-54454819D01*
X168976190Y-54454819D02*
X169071428Y-54502438D01*
X169071428Y-54502438D02*
X169119047Y-54550057D01*
X169119047Y-54550057D02*
X169166666Y-54645295D01*
X169166666Y-54645295D02*
X169166666Y-54788152D01*
X169166666Y-54788152D02*
X169119047Y-54883390D01*
X169119047Y-54883390D02*
X169071428Y-54931009D01*
X169071428Y-54931009D02*
X168976190Y-54978628D01*
X168976190Y-54978628D02*
X168595238Y-54978628D01*
X169595238Y-54931009D02*
X169928571Y-54931009D01*
X170071428Y-55454819D02*
X169595238Y-55454819D01*
X169595238Y-55454819D02*
X169595238Y-54454819D01*
X169595238Y-54454819D02*
X170071428Y-54454819D01*
X170833333Y-54931009D02*
X170500000Y-54931009D01*
X170500000Y-55454819D02*
X170500000Y-54454819D01*
X170500000Y-54454819D02*
X170976190Y-54454819D01*
X171500000Y-54454819D02*
X171500000Y-54692914D01*
X171261905Y-54597676D02*
X171500000Y-54692914D01*
X171500000Y-54692914D02*
X171738095Y-54597676D01*
X171357143Y-54883390D02*
X171500000Y-54692914D01*
X171500000Y-54692914D02*
X171642857Y-54883390D01*
X172261905Y-54454819D02*
X172261905Y-54692914D01*
X172023810Y-54597676D02*
X172261905Y-54692914D01*
X172261905Y-54692914D02*
X172500000Y-54597676D01*
X172119048Y-54883390D02*
X172261905Y-54692914D01*
X172261905Y-54692914D02*
X172404762Y-54883390D01*
%TO.C,C3*%
X169833333Y-67359580D02*
X169785714Y-67407200D01*
X169785714Y-67407200D02*
X169642857Y-67454819D01*
X169642857Y-67454819D02*
X169547619Y-67454819D01*
X169547619Y-67454819D02*
X169404762Y-67407200D01*
X169404762Y-67407200D02*
X169309524Y-67311961D01*
X169309524Y-67311961D02*
X169261905Y-67216723D01*
X169261905Y-67216723D02*
X169214286Y-67026247D01*
X169214286Y-67026247D02*
X169214286Y-66883390D01*
X169214286Y-66883390D02*
X169261905Y-66692914D01*
X169261905Y-66692914D02*
X169309524Y-66597676D01*
X169309524Y-66597676D02*
X169404762Y-66502438D01*
X169404762Y-66502438D02*
X169547619Y-66454819D01*
X169547619Y-66454819D02*
X169642857Y-66454819D01*
X169642857Y-66454819D02*
X169785714Y-66502438D01*
X169785714Y-66502438D02*
X169833333Y-66550057D01*
X170166667Y-66454819D02*
X170785714Y-66454819D01*
X170785714Y-66454819D02*
X170452381Y-66835771D01*
X170452381Y-66835771D02*
X170595238Y-66835771D01*
X170595238Y-66835771D02*
X170690476Y-66883390D01*
X170690476Y-66883390D02*
X170738095Y-66931009D01*
X170738095Y-66931009D02*
X170785714Y-67026247D01*
X170785714Y-67026247D02*
X170785714Y-67264342D01*
X170785714Y-67264342D02*
X170738095Y-67359580D01*
X170738095Y-67359580D02*
X170690476Y-67407200D01*
X170690476Y-67407200D02*
X170595238Y-67454819D01*
X170595238Y-67454819D02*
X170309524Y-67454819D01*
X170309524Y-67454819D02*
X170214286Y-67407200D01*
X170214286Y-67407200D02*
X170166667Y-67359580D01*
%TO.C,L1*%
X164083333Y-120954819D02*
X163607143Y-120954819D01*
X163607143Y-120954819D02*
X163607143Y-119954819D01*
X164940476Y-120954819D02*
X164369048Y-120954819D01*
X164654762Y-120954819D02*
X164654762Y-119954819D01*
X164654762Y-119954819D02*
X164559524Y-120097676D01*
X164559524Y-120097676D02*
X164464286Y-120192914D01*
X164464286Y-120192914D02*
X164369048Y-120240533D01*
X169166666Y-121454819D02*
X168833333Y-120978628D01*
X168595238Y-121454819D02*
X168595238Y-120454819D01*
X168595238Y-120454819D02*
X168976190Y-120454819D01*
X168976190Y-120454819D02*
X169071428Y-120502438D01*
X169071428Y-120502438D02*
X169119047Y-120550057D01*
X169119047Y-120550057D02*
X169166666Y-120645295D01*
X169166666Y-120645295D02*
X169166666Y-120788152D01*
X169166666Y-120788152D02*
X169119047Y-120883390D01*
X169119047Y-120883390D02*
X169071428Y-120931009D01*
X169071428Y-120931009D02*
X168976190Y-120978628D01*
X168976190Y-120978628D02*
X168595238Y-120978628D01*
X169595238Y-120931009D02*
X169928571Y-120931009D01*
X170071428Y-121454819D02*
X169595238Y-121454819D01*
X169595238Y-121454819D02*
X169595238Y-120454819D01*
X169595238Y-120454819D02*
X170071428Y-120454819D01*
X170833333Y-120931009D02*
X170500000Y-120931009D01*
X170500000Y-121454819D02*
X170500000Y-120454819D01*
X170500000Y-120454819D02*
X170976190Y-120454819D01*
X171500000Y-120454819D02*
X171500000Y-120692914D01*
X171261905Y-120597676D02*
X171500000Y-120692914D01*
X171500000Y-120692914D02*
X171738095Y-120597676D01*
X171357143Y-120883390D02*
X171500000Y-120692914D01*
X171500000Y-120692914D02*
X171642857Y-120883390D01*
X172261905Y-120454819D02*
X172261905Y-120692914D01*
X172023810Y-120597676D02*
X172261905Y-120692914D01*
X172261905Y-120692914D02*
X172500000Y-120597676D01*
X172119048Y-120883390D02*
X172261905Y-120692914D01*
X172261905Y-120692914D02*
X172404762Y-120883390D01*
%TO.C,H4*%
X181063095Y-88529819D02*
X181063095Y-87529819D01*
X181063095Y-88006009D02*
X181634523Y-88006009D01*
X181634523Y-88529819D02*
X181634523Y-87529819D01*
X182539285Y-87863152D02*
X182539285Y-88529819D01*
X182301190Y-87482200D02*
X182063095Y-88196485D01*
X182063095Y-88196485D02*
X182682142Y-88196485D01*
%TO.C,H2*%
X157863095Y-88529819D02*
X157863095Y-87529819D01*
X157863095Y-88006009D02*
X158434523Y-88006009D01*
X158434523Y-88529819D02*
X158434523Y-87529819D01*
X158863095Y-87625057D02*
X158910714Y-87577438D01*
X158910714Y-87577438D02*
X159005952Y-87529819D01*
X159005952Y-87529819D02*
X159244047Y-87529819D01*
X159244047Y-87529819D02*
X159339285Y-87577438D01*
X159339285Y-87577438D02*
X159386904Y-87625057D01*
X159386904Y-87625057D02*
X159434523Y-87720295D01*
X159434523Y-87720295D02*
X159434523Y-87815533D01*
X159434523Y-87815533D02*
X159386904Y-87958390D01*
X159386904Y-87958390D02*
X158815476Y-88529819D01*
X158815476Y-88529819D02*
X159434523Y-88529819D01*
%TO.C,C3*%
X169833333Y-100359580D02*
X169785714Y-100407200D01*
X169785714Y-100407200D02*
X169642857Y-100454819D01*
X169642857Y-100454819D02*
X169547619Y-100454819D01*
X169547619Y-100454819D02*
X169404762Y-100407200D01*
X169404762Y-100407200D02*
X169309524Y-100311961D01*
X169309524Y-100311961D02*
X169261905Y-100216723D01*
X169261905Y-100216723D02*
X169214286Y-100026247D01*
X169214286Y-100026247D02*
X169214286Y-99883390D01*
X169214286Y-99883390D02*
X169261905Y-99692914D01*
X169261905Y-99692914D02*
X169309524Y-99597676D01*
X169309524Y-99597676D02*
X169404762Y-99502438D01*
X169404762Y-99502438D02*
X169547619Y-99454819D01*
X169547619Y-99454819D02*
X169642857Y-99454819D01*
X169642857Y-99454819D02*
X169785714Y-99502438D01*
X169785714Y-99502438D02*
X169833333Y-99550057D01*
X170166667Y-99454819D02*
X170785714Y-99454819D01*
X170785714Y-99454819D02*
X170452381Y-99835771D01*
X170452381Y-99835771D02*
X170595238Y-99835771D01*
X170595238Y-99835771D02*
X170690476Y-99883390D01*
X170690476Y-99883390D02*
X170738095Y-99931009D01*
X170738095Y-99931009D02*
X170785714Y-100026247D01*
X170785714Y-100026247D02*
X170785714Y-100264342D01*
X170785714Y-100264342D02*
X170738095Y-100359580D01*
X170738095Y-100359580D02*
X170690476Y-100407200D01*
X170690476Y-100407200D02*
X170595238Y-100454819D01*
X170595238Y-100454819D02*
X170309524Y-100454819D01*
X170309524Y-100454819D02*
X170214286Y-100407200D01*
X170214286Y-100407200D02*
X170166667Y-100359580D01*
%TO.C,L1*%
X164083333Y-87954819D02*
X163607143Y-87954819D01*
X163607143Y-87954819D02*
X163607143Y-86954819D01*
X164940476Y-87954819D02*
X164369048Y-87954819D01*
X164654762Y-87954819D02*
X164654762Y-86954819D01*
X164654762Y-86954819D02*
X164559524Y-87097676D01*
X164559524Y-87097676D02*
X164464286Y-87192914D01*
X164464286Y-87192914D02*
X164369048Y-87240533D01*
X169166666Y-88454819D02*
X168833333Y-87978628D01*
X168595238Y-88454819D02*
X168595238Y-87454819D01*
X168595238Y-87454819D02*
X168976190Y-87454819D01*
X168976190Y-87454819D02*
X169071428Y-87502438D01*
X169071428Y-87502438D02*
X169119047Y-87550057D01*
X169119047Y-87550057D02*
X169166666Y-87645295D01*
X169166666Y-87645295D02*
X169166666Y-87788152D01*
X169166666Y-87788152D02*
X169119047Y-87883390D01*
X169119047Y-87883390D02*
X169071428Y-87931009D01*
X169071428Y-87931009D02*
X168976190Y-87978628D01*
X168976190Y-87978628D02*
X168595238Y-87978628D01*
X169595238Y-87931009D02*
X169928571Y-87931009D01*
X170071428Y-88454819D02*
X169595238Y-88454819D01*
X169595238Y-88454819D02*
X169595238Y-87454819D01*
X169595238Y-87454819D02*
X170071428Y-87454819D01*
X170833333Y-87931009D02*
X170500000Y-87931009D01*
X170500000Y-88454819D02*
X170500000Y-87454819D01*
X170500000Y-87454819D02*
X170976190Y-87454819D01*
X171500000Y-87454819D02*
X171500000Y-87692914D01*
X171261905Y-87597676D02*
X171500000Y-87692914D01*
X171500000Y-87692914D02*
X171738095Y-87597676D01*
X171357143Y-87883390D02*
X171500000Y-87692914D01*
X171500000Y-87692914D02*
X171642857Y-87883390D01*
X172261905Y-87454819D02*
X172261905Y-87692914D01*
X172023810Y-87597676D02*
X172261905Y-87692914D01*
X172261905Y-87692914D02*
X172500000Y-87597676D01*
X172119048Y-87883390D02*
X172261905Y-87692914D01*
X172261905Y-87692914D02*
X172404762Y-87883390D01*
%TO.C,C1*%
X169833333Y-98359580D02*
X169785714Y-98407200D01*
X169785714Y-98407200D02*
X169642857Y-98454819D01*
X169642857Y-98454819D02*
X169547619Y-98454819D01*
X169547619Y-98454819D02*
X169404762Y-98407200D01*
X169404762Y-98407200D02*
X169309524Y-98311961D01*
X169309524Y-98311961D02*
X169261905Y-98216723D01*
X169261905Y-98216723D02*
X169214286Y-98026247D01*
X169214286Y-98026247D02*
X169214286Y-97883390D01*
X169214286Y-97883390D02*
X169261905Y-97692914D01*
X169261905Y-97692914D02*
X169309524Y-97597676D01*
X169309524Y-97597676D02*
X169404762Y-97502438D01*
X169404762Y-97502438D02*
X169547619Y-97454819D01*
X169547619Y-97454819D02*
X169642857Y-97454819D01*
X169642857Y-97454819D02*
X169785714Y-97502438D01*
X169785714Y-97502438D02*
X169833333Y-97550057D01*
X170785714Y-98454819D02*
X170214286Y-98454819D01*
X170500000Y-98454819D02*
X170500000Y-97454819D01*
X170500000Y-97454819D02*
X170404762Y-97597676D01*
X170404762Y-97597676D02*
X170309524Y-97692914D01*
X170309524Y-97692914D02*
X170214286Y-97740533D01*
X169833333Y-131359580D02*
X169785714Y-131407200D01*
X169785714Y-131407200D02*
X169642857Y-131454819D01*
X169642857Y-131454819D02*
X169547619Y-131454819D01*
X169547619Y-131454819D02*
X169404762Y-131407200D01*
X169404762Y-131407200D02*
X169309524Y-131311961D01*
X169309524Y-131311961D02*
X169261905Y-131216723D01*
X169261905Y-131216723D02*
X169214286Y-131026247D01*
X169214286Y-131026247D02*
X169214286Y-130883390D01*
X169214286Y-130883390D02*
X169261905Y-130692914D01*
X169261905Y-130692914D02*
X169309524Y-130597676D01*
X169309524Y-130597676D02*
X169404762Y-130502438D01*
X169404762Y-130502438D02*
X169547619Y-130454819D01*
X169547619Y-130454819D02*
X169642857Y-130454819D01*
X169642857Y-130454819D02*
X169785714Y-130502438D01*
X169785714Y-130502438D02*
X169833333Y-130550057D01*
X170785714Y-131454819D02*
X170214286Y-131454819D01*
X170500000Y-131454819D02*
X170500000Y-130454819D01*
X170500000Y-130454819D02*
X170404762Y-130597676D01*
X170404762Y-130597676D02*
X170309524Y-130692914D01*
X170309524Y-130692914D02*
X170214286Y-130740533D01*
%TO.C,C3*%
X169833333Y-133359580D02*
X169785714Y-133407200D01*
X169785714Y-133407200D02*
X169642857Y-133454819D01*
X169642857Y-133454819D02*
X169547619Y-133454819D01*
X169547619Y-133454819D02*
X169404762Y-133407200D01*
X169404762Y-133407200D02*
X169309524Y-133311961D01*
X169309524Y-133311961D02*
X169261905Y-133216723D01*
X169261905Y-133216723D02*
X169214286Y-133026247D01*
X169214286Y-133026247D02*
X169214286Y-132883390D01*
X169214286Y-132883390D02*
X169261905Y-132692914D01*
X169261905Y-132692914D02*
X169309524Y-132597676D01*
X169309524Y-132597676D02*
X169404762Y-132502438D01*
X169404762Y-132502438D02*
X169547619Y-132454819D01*
X169547619Y-132454819D02*
X169642857Y-132454819D01*
X169642857Y-132454819D02*
X169785714Y-132502438D01*
X169785714Y-132502438D02*
X169833333Y-132550057D01*
X170166667Y-132454819D02*
X170785714Y-132454819D01*
X170785714Y-132454819D02*
X170452381Y-132835771D01*
X170452381Y-132835771D02*
X170595238Y-132835771D01*
X170595238Y-132835771D02*
X170690476Y-132883390D01*
X170690476Y-132883390D02*
X170738095Y-132931009D01*
X170738095Y-132931009D02*
X170785714Y-133026247D01*
X170785714Y-133026247D02*
X170785714Y-133264342D01*
X170785714Y-133264342D02*
X170738095Y-133359580D01*
X170738095Y-133359580D02*
X170690476Y-133407200D01*
X170690476Y-133407200D02*
X170595238Y-133454819D01*
X170595238Y-133454819D02*
X170309524Y-133454819D01*
X170309524Y-133454819D02*
X170214286Y-133407200D01*
X170214286Y-133407200D02*
X170166667Y-133359580D01*
%TO.C,H2*%
X157863095Y-121529819D02*
X157863095Y-120529819D01*
X157863095Y-121006009D02*
X158434523Y-121006009D01*
X158434523Y-121529819D02*
X158434523Y-120529819D01*
X158863095Y-120625057D02*
X158910714Y-120577438D01*
X158910714Y-120577438D02*
X159005952Y-120529819D01*
X159005952Y-120529819D02*
X159244047Y-120529819D01*
X159244047Y-120529819D02*
X159339285Y-120577438D01*
X159339285Y-120577438D02*
X159386904Y-120625057D01*
X159386904Y-120625057D02*
X159434523Y-120720295D01*
X159434523Y-120720295D02*
X159434523Y-120815533D01*
X159434523Y-120815533D02*
X159386904Y-120958390D01*
X159386904Y-120958390D02*
X158815476Y-121529819D01*
X158815476Y-121529819D02*
X159434523Y-121529819D01*
%TO.C,H4*%
X181063095Y-121529819D02*
X181063095Y-120529819D01*
X181063095Y-121006009D02*
X181634523Y-121006009D01*
X181634523Y-121529819D02*
X181634523Y-120529819D01*
X182539285Y-120863152D02*
X182539285Y-121529819D01*
X182301190Y-120482200D02*
X182063095Y-121196485D01*
X182063095Y-121196485D02*
X182682142Y-121196485D01*
%TO.C,H2*%
X109529819Y-128136904D02*
X108529819Y-128136904D01*
X109006009Y-128136904D02*
X109006009Y-127565476D01*
X109529819Y-127565476D02*
X108529819Y-127565476D01*
X108625057Y-127136904D02*
X108577438Y-127089285D01*
X108577438Y-127089285D02*
X108529819Y-126994047D01*
X108529819Y-126994047D02*
X108529819Y-126755952D01*
X108529819Y-126755952D02*
X108577438Y-126660714D01*
X108577438Y-126660714D02*
X108625057Y-126613095D01*
X108625057Y-126613095D02*
X108720295Y-126565476D01*
X108720295Y-126565476D02*
X108815533Y-126565476D01*
X108815533Y-126565476D02*
X108958390Y-126613095D01*
X108958390Y-126613095D02*
X109529819Y-127184523D01*
X109529819Y-127184523D02*
X109529819Y-126565476D01*
%TO.C,H4*%
X109529819Y-104936904D02*
X108529819Y-104936904D01*
X109006009Y-104936904D02*
X109006009Y-104365476D01*
X109529819Y-104365476D02*
X108529819Y-104365476D01*
X108863152Y-103460714D02*
X109529819Y-103460714D01*
X108482200Y-103698809D02*
X109196485Y-103936904D01*
X109196485Y-103936904D02*
X109196485Y-103317857D01*
%TO.C,C1*%
X119359580Y-116166666D02*
X119407200Y-116214285D01*
X119407200Y-116214285D02*
X119454819Y-116357142D01*
X119454819Y-116357142D02*
X119454819Y-116452380D01*
X119454819Y-116452380D02*
X119407200Y-116595237D01*
X119407200Y-116595237D02*
X119311961Y-116690475D01*
X119311961Y-116690475D02*
X119216723Y-116738094D01*
X119216723Y-116738094D02*
X119026247Y-116785713D01*
X119026247Y-116785713D02*
X118883390Y-116785713D01*
X118883390Y-116785713D02*
X118692914Y-116738094D01*
X118692914Y-116738094D02*
X118597676Y-116690475D01*
X118597676Y-116690475D02*
X118502438Y-116595237D01*
X118502438Y-116595237D02*
X118454819Y-116452380D01*
X118454819Y-116452380D02*
X118454819Y-116357142D01*
X118454819Y-116357142D02*
X118502438Y-116214285D01*
X118502438Y-116214285D02*
X118550057Y-116166666D01*
X119454819Y-115214285D02*
X119454819Y-115785713D01*
X119454819Y-115499999D02*
X118454819Y-115499999D01*
X118454819Y-115499999D02*
X118597676Y-115595237D01*
X118597676Y-115595237D02*
X118692914Y-115690475D01*
X118692914Y-115690475D02*
X118740533Y-115785713D01*
%TO.C,L1*%
X108954819Y-121916666D02*
X108954819Y-122392856D01*
X108954819Y-122392856D02*
X107954819Y-122392856D01*
X108954819Y-121059523D02*
X108954819Y-121630951D01*
X108954819Y-121345237D02*
X107954819Y-121345237D01*
X107954819Y-121345237D02*
X108097676Y-121440475D01*
X108097676Y-121440475D02*
X108192914Y-121535713D01*
X108192914Y-121535713D02*
X108240533Y-121630951D01*
X109454819Y-116833333D02*
X108978628Y-117166666D01*
X109454819Y-117404761D02*
X108454819Y-117404761D01*
X108454819Y-117404761D02*
X108454819Y-117023809D01*
X108454819Y-117023809D02*
X108502438Y-116928571D01*
X108502438Y-116928571D02*
X108550057Y-116880952D01*
X108550057Y-116880952D02*
X108645295Y-116833333D01*
X108645295Y-116833333D02*
X108788152Y-116833333D01*
X108788152Y-116833333D02*
X108883390Y-116880952D01*
X108883390Y-116880952D02*
X108931009Y-116928571D01*
X108931009Y-116928571D02*
X108978628Y-117023809D01*
X108978628Y-117023809D02*
X108978628Y-117404761D01*
X108931009Y-116404761D02*
X108931009Y-116071428D01*
X109454819Y-115928571D02*
X109454819Y-116404761D01*
X109454819Y-116404761D02*
X108454819Y-116404761D01*
X108454819Y-116404761D02*
X108454819Y-115928571D01*
X108931009Y-115166666D02*
X108931009Y-115499999D01*
X109454819Y-115499999D02*
X108454819Y-115499999D01*
X108454819Y-115499999D02*
X108454819Y-115023809D01*
X108454819Y-114499999D02*
X108692914Y-114499999D01*
X108597676Y-114738094D02*
X108692914Y-114499999D01*
X108692914Y-114499999D02*
X108597676Y-114261904D01*
X108883390Y-114642856D02*
X108692914Y-114499999D01*
X108692914Y-114499999D02*
X108883390Y-114357142D01*
X108454819Y-113738094D02*
X108692914Y-113738094D01*
X108597676Y-113976189D02*
X108692914Y-113738094D01*
X108692914Y-113738094D02*
X108597676Y-113499999D01*
X108883390Y-113880951D02*
X108692914Y-113738094D01*
X108692914Y-113738094D02*
X108883390Y-113595237D01*
%TO.C,C3*%
X121359580Y-116166666D02*
X121407200Y-116214285D01*
X121407200Y-116214285D02*
X121454819Y-116357142D01*
X121454819Y-116357142D02*
X121454819Y-116452380D01*
X121454819Y-116452380D02*
X121407200Y-116595237D01*
X121407200Y-116595237D02*
X121311961Y-116690475D01*
X121311961Y-116690475D02*
X121216723Y-116738094D01*
X121216723Y-116738094D02*
X121026247Y-116785713D01*
X121026247Y-116785713D02*
X120883390Y-116785713D01*
X120883390Y-116785713D02*
X120692914Y-116738094D01*
X120692914Y-116738094D02*
X120597676Y-116690475D01*
X120597676Y-116690475D02*
X120502438Y-116595237D01*
X120502438Y-116595237D02*
X120454819Y-116452380D01*
X120454819Y-116452380D02*
X120454819Y-116357142D01*
X120454819Y-116357142D02*
X120502438Y-116214285D01*
X120502438Y-116214285D02*
X120550057Y-116166666D01*
X120454819Y-115833332D02*
X120454819Y-115214285D01*
X120454819Y-115214285D02*
X120835771Y-115547618D01*
X120835771Y-115547618D02*
X120835771Y-115404761D01*
X120835771Y-115404761D02*
X120883390Y-115309523D01*
X120883390Y-115309523D02*
X120931009Y-115261904D01*
X120931009Y-115261904D02*
X121026247Y-115214285D01*
X121026247Y-115214285D02*
X121264342Y-115214285D01*
X121264342Y-115214285D02*
X121359580Y-115261904D01*
X121359580Y-115261904D02*
X121407200Y-115309523D01*
X121407200Y-115309523D02*
X121454819Y-115404761D01*
X121454819Y-115404761D02*
X121454819Y-115690475D01*
X121454819Y-115690475D02*
X121407200Y-115785713D01*
X121407200Y-115785713D02*
X121359580Y-115833332D01*
%TO.C,H2*%
X125113095Y-55379819D02*
X125113095Y-54379819D01*
X125113095Y-54856009D02*
X125684523Y-54856009D01*
X125684523Y-55379819D02*
X125684523Y-54379819D01*
X126113095Y-54475057D02*
X126160714Y-54427438D01*
X126160714Y-54427438D02*
X126255952Y-54379819D01*
X126255952Y-54379819D02*
X126494047Y-54379819D01*
X126494047Y-54379819D02*
X126589285Y-54427438D01*
X126589285Y-54427438D02*
X126636904Y-54475057D01*
X126636904Y-54475057D02*
X126684523Y-54570295D01*
X126684523Y-54570295D02*
X126684523Y-54665533D01*
X126684523Y-54665533D02*
X126636904Y-54808390D01*
X126636904Y-54808390D02*
X126065476Y-55379819D01*
X126065476Y-55379819D02*
X126684523Y-55379819D01*
%TO.C,H4*%
X101913095Y-55379819D02*
X101913095Y-54379819D01*
X101913095Y-54856009D02*
X102484523Y-54856009D01*
X102484523Y-55379819D02*
X102484523Y-54379819D01*
X103389285Y-54713152D02*
X103389285Y-55379819D01*
X103151190Y-54332200D02*
X102913095Y-55046485D01*
X102913095Y-55046485D02*
X103532142Y-55046485D01*
%TO.C,C1*%
X114333333Y-45359580D02*
X114285714Y-45407200D01*
X114285714Y-45407200D02*
X114142857Y-45454819D01*
X114142857Y-45454819D02*
X114047619Y-45454819D01*
X114047619Y-45454819D02*
X113904762Y-45407200D01*
X113904762Y-45407200D02*
X113809524Y-45311961D01*
X113809524Y-45311961D02*
X113761905Y-45216723D01*
X113761905Y-45216723D02*
X113714286Y-45026247D01*
X113714286Y-45026247D02*
X113714286Y-44883390D01*
X113714286Y-44883390D02*
X113761905Y-44692914D01*
X113761905Y-44692914D02*
X113809524Y-44597676D01*
X113809524Y-44597676D02*
X113904762Y-44502438D01*
X113904762Y-44502438D02*
X114047619Y-44454819D01*
X114047619Y-44454819D02*
X114142857Y-44454819D01*
X114142857Y-44454819D02*
X114285714Y-44502438D01*
X114285714Y-44502438D02*
X114333333Y-44550057D01*
X115285714Y-45454819D02*
X114714286Y-45454819D01*
X115000000Y-45454819D02*
X115000000Y-44454819D01*
X115000000Y-44454819D02*
X114904762Y-44597676D01*
X114904762Y-44597676D02*
X114809524Y-44692914D01*
X114809524Y-44692914D02*
X114714286Y-44740533D01*
%TO.C,L1*%
X120083333Y-55954819D02*
X119607143Y-55954819D01*
X119607143Y-55954819D02*
X119607143Y-54954819D01*
X120940476Y-55954819D02*
X120369048Y-55954819D01*
X120654762Y-55954819D02*
X120654762Y-54954819D01*
X120654762Y-54954819D02*
X120559524Y-55097676D01*
X120559524Y-55097676D02*
X120464286Y-55192914D01*
X120464286Y-55192914D02*
X120369048Y-55240533D01*
X112666666Y-55454819D02*
X112333333Y-54978628D01*
X112095238Y-55454819D02*
X112095238Y-54454819D01*
X112095238Y-54454819D02*
X112476190Y-54454819D01*
X112476190Y-54454819D02*
X112571428Y-54502438D01*
X112571428Y-54502438D02*
X112619047Y-54550057D01*
X112619047Y-54550057D02*
X112666666Y-54645295D01*
X112666666Y-54645295D02*
X112666666Y-54788152D01*
X112666666Y-54788152D02*
X112619047Y-54883390D01*
X112619047Y-54883390D02*
X112571428Y-54931009D01*
X112571428Y-54931009D02*
X112476190Y-54978628D01*
X112476190Y-54978628D02*
X112095238Y-54978628D01*
X113095238Y-54931009D02*
X113428571Y-54931009D01*
X113571428Y-55454819D02*
X113095238Y-55454819D01*
X113095238Y-55454819D02*
X113095238Y-54454819D01*
X113095238Y-54454819D02*
X113571428Y-54454819D01*
X114333333Y-54931009D02*
X114000000Y-54931009D01*
X114000000Y-55454819D02*
X114000000Y-54454819D01*
X114000000Y-54454819D02*
X114476190Y-54454819D01*
X115000000Y-54454819D02*
X115000000Y-54692914D01*
X114761905Y-54597676D02*
X115000000Y-54692914D01*
X115000000Y-54692914D02*
X115238095Y-54597676D01*
X114857143Y-54883390D02*
X115000000Y-54692914D01*
X115000000Y-54692914D02*
X115142857Y-54883390D01*
X115761905Y-54454819D02*
X115761905Y-54692914D01*
X115523810Y-54597676D02*
X115761905Y-54692914D01*
X115761905Y-54692914D02*
X116000000Y-54597676D01*
X115619048Y-54883390D02*
X115761905Y-54692914D01*
X115761905Y-54692914D02*
X115904762Y-54883390D01*
%TO.C,C3*%
X114333333Y-43359580D02*
X114285714Y-43407200D01*
X114285714Y-43407200D02*
X114142857Y-43454819D01*
X114142857Y-43454819D02*
X114047619Y-43454819D01*
X114047619Y-43454819D02*
X113904762Y-43407200D01*
X113904762Y-43407200D02*
X113809524Y-43311961D01*
X113809524Y-43311961D02*
X113761905Y-43216723D01*
X113761905Y-43216723D02*
X113714286Y-43026247D01*
X113714286Y-43026247D02*
X113714286Y-42883390D01*
X113714286Y-42883390D02*
X113761905Y-42692914D01*
X113761905Y-42692914D02*
X113809524Y-42597676D01*
X113809524Y-42597676D02*
X113904762Y-42502438D01*
X113904762Y-42502438D02*
X114047619Y-42454819D01*
X114047619Y-42454819D02*
X114142857Y-42454819D01*
X114142857Y-42454819D02*
X114285714Y-42502438D01*
X114285714Y-42502438D02*
X114333333Y-42550057D01*
X114666667Y-42454819D02*
X115285714Y-42454819D01*
X115285714Y-42454819D02*
X114952381Y-42835771D01*
X114952381Y-42835771D02*
X115095238Y-42835771D01*
X115095238Y-42835771D02*
X115190476Y-42883390D01*
X115190476Y-42883390D02*
X115238095Y-42931009D01*
X115238095Y-42931009D02*
X115285714Y-43026247D01*
X115285714Y-43026247D02*
X115285714Y-43264342D01*
X115285714Y-43264342D02*
X115238095Y-43359580D01*
X115238095Y-43359580D02*
X115190476Y-43407200D01*
X115190476Y-43407200D02*
X115095238Y-43454819D01*
X115095238Y-43454819D02*
X114809524Y-43454819D01*
X114809524Y-43454819D02*
X114714286Y-43407200D01*
X114714286Y-43407200D02*
X114666667Y-43359580D01*
D10*
%TO.C,H2*%
X160225781Y-55075000D02*
G75*
G03*
X160225781Y-55075000I-1600781J0D01*
G01*
%TO.C,H4*%
X183425781Y-55075000D02*
G75*
G03*
X183425781Y-55075000I-1600781J0D01*
G01*
%TO.C,C1*%
X172695000Y-68385000D02*
X172695000Y-68070000D01*
X172695000Y-65960000D02*
X172695000Y-65645000D01*
X172695000Y-65645000D02*
X167755000Y-65645000D01*
X172695000Y-68385000D02*
X167755000Y-68385000D01*
X167755000Y-68385000D02*
X167755000Y-68070000D01*
X167755000Y-65960000D02*
X167755000Y-65645000D01*
%TO.C,L1*%
X179250000Y-55000000D02*
G75*
G03*
X179250000Y-55000000I-9000000J0D01*
G01*
X173250817Y-54930000D02*
G75*
G03*
X173250817Y-54930000I-3000817J0D01*
G01*
X174750544Y-54930000D02*
G75*
G03*
X174750544Y-54930000I-4500544J0D01*
G01*
%TO.C,C3*%
X170961252Y-66090000D02*
X169538748Y-66090000D01*
X170961252Y-67910000D02*
X169538748Y-67910000D01*
%TO.C,L1*%
X174750544Y-120930000D02*
G75*
G03*
X174750544Y-120930000I-4500544J0D01*
G01*
X173250817Y-120930000D02*
G75*
G03*
X173250817Y-120930000I-3000817J0D01*
G01*
X179250000Y-121000000D02*
G75*
G03*
X179250000Y-121000000I-9000000J0D01*
G01*
%TO.C,H4*%
X183425781Y-88075000D02*
G75*
G03*
X183425781Y-88075000I-1600781J0D01*
G01*
%TO.C,H2*%
X160225781Y-88075000D02*
G75*
G03*
X160225781Y-88075000I-1600781J0D01*
G01*
%TO.C,C3*%
X170961252Y-100910000D02*
X169538748Y-100910000D01*
X170961252Y-99090000D02*
X169538748Y-99090000D01*
%TO.C,L1*%
X174750544Y-87930000D02*
G75*
G03*
X174750544Y-87930000I-4500544J0D01*
G01*
X173250817Y-87930000D02*
G75*
G03*
X173250817Y-87930000I-3000817J0D01*
G01*
X179250000Y-88000000D02*
G75*
G03*
X179250000Y-88000000I-9000000J0D01*
G01*
%TO.C,C1*%
X172695000Y-98645000D02*
X167755000Y-98645000D01*
X167755000Y-101385000D02*
X167755000Y-101070000D01*
X172695000Y-101385000D02*
X172695000Y-101070000D01*
X172695000Y-101385000D02*
X167755000Y-101385000D01*
X172695000Y-98960000D02*
X172695000Y-98645000D01*
X167755000Y-98960000D02*
X167755000Y-98645000D01*
X172695000Y-134385000D02*
X172695000Y-134070000D01*
X167755000Y-134385000D02*
X167755000Y-134070000D01*
X172695000Y-131645000D02*
X167755000Y-131645000D01*
X172695000Y-134385000D02*
X167755000Y-134385000D01*
X167755000Y-131960000D02*
X167755000Y-131645000D01*
X172695000Y-131960000D02*
X172695000Y-131645000D01*
%TO.C,C3*%
X170961252Y-133910000D02*
X169538748Y-133910000D01*
X170961252Y-132090000D02*
X169538748Y-132090000D01*
%TO.C,H2*%
X160225781Y-121075000D02*
G75*
G03*
X160225781Y-121075000I-1600781J0D01*
G01*
%TO.C,H4*%
X183425781Y-121075000D02*
G75*
G03*
X183425781Y-121075000I-1600781J0D01*
G01*
%TO.C,H2*%
X110675781Y-127375000D02*
G75*
G03*
X110675781Y-127375000I-1600781J0D01*
G01*
%TO.C,H4*%
X110675781Y-104175000D02*
G75*
G03*
X110675781Y-104175000I-1600781J0D01*
G01*
%TO.C,C1*%
X119645000Y-113305000D02*
X119645000Y-118245000D01*
X122385000Y-113305000D02*
X122070000Y-113305000D01*
X119960000Y-113305000D02*
X119645000Y-113305000D01*
X122385000Y-118245000D02*
X122070000Y-118245000D01*
X119960000Y-118245000D02*
X119645000Y-118245000D01*
X122385000Y-113305000D02*
X122385000Y-118245000D01*
%TO.C,L1*%
X111930817Y-115750000D02*
G75*
G03*
X111930817Y-115750000I-3000817J0D01*
G01*
X118000000Y-115750000D02*
G75*
G03*
X118000000Y-115750000I-9000000J0D01*
G01*
X113430544Y-115750000D02*
G75*
G03*
X113430544Y-115750000I-4500544J0D01*
G01*
%TO.C,C3*%
X120090000Y-115038748D02*
X120090000Y-116461252D01*
X121910000Y-115038748D02*
X121910000Y-116461252D01*
%TO.C,H2*%
X127475781Y-54925000D02*
G75*
G03*
X127475781Y-54925000I-1600781J0D01*
G01*
%TO.C,H4*%
X104275781Y-54925000D02*
G75*
G03*
X104275781Y-54925000I-1600781J0D01*
G01*
%TO.C,C1*%
X116745000Y-41615000D02*
X116745000Y-41930000D01*
X116745000Y-44040000D02*
X116745000Y-44355000D01*
X111805000Y-41615000D02*
X111805000Y-41930000D01*
X111805000Y-41615000D02*
X116745000Y-41615000D01*
X111805000Y-44040000D02*
X111805000Y-44355000D01*
X111805000Y-44355000D02*
X116745000Y-44355000D01*
%TO.C,L1*%
X118750544Y-55070000D02*
G75*
G03*
X118750544Y-55070000I-4500544J0D01*
G01*
X123250000Y-55000000D02*
G75*
G03*
X123250000Y-55000000I-9000000J0D01*
G01*
X117250817Y-55070000D02*
G75*
G03*
X117250817Y-55070000I-3000817J0D01*
G01*
%TO.C,C3*%
X113538748Y-42090000D02*
X114961252Y-42090000D01*
X113538748Y-43910000D02*
X114961252Y-43910000D01*
%TD*%
M02*
