%TF.GenerationSoftware,KiCad,Pcbnew,7.0.5-7.0.5~ubuntu22.04.1*%
%TF.CreationDate,2025-02-26T12:57:41+00:00*%
%TF.ProjectId,PBA0019-T50-6-trap,50424130-3031-4392-9d54-35302d362d74,1.0*%
%TF.SameCoordinates,Original*%
%TF.FileFunction,Drillmap*%
%TF.FilePolarity,Positive*%
%FSLAX45Y45*%
G04 Gerber Fmt 4.5, Leading zero omitted, Abs format (unit mm)*
G04 Created by KiCad (PCBNEW 7.0.5-7.0.5~ubuntu22.04.1) date 2025-02-26 12:57:41*
%MOMM*%
%LPD*%
G01*
G04 APERTURE LIST*
%ADD10C,0.050000*%
%ADD11C,0.200000*%
%ADD12C,0.076200*%
%ADD13C,0.080000*%
G04 APERTURE END LIST*
D10*
X9230000Y-13805000D02*
X9230000Y-3805000D01*
X19230000Y-13805000D02*
X19230000Y-3805000D01*
X9230000Y-3805000D02*
X19230000Y-3805000D01*
X19230000Y-13805000D02*
X9230000Y-13805000D01*
X17796466Y-7047500D02*
G75*
G03*
X19087500Y-5772500I15934J1275000D01*
G01*
X16222500Y-3973434D02*
X17802500Y-3973434D01*
X16221566Y-7047500D02*
X17796466Y-7047500D01*
X19002500Y-5257500D02*
G75*
G03*
X17802500Y-4057500I-1200000J0D01*
G01*
X19086566Y-5257500D02*
G75*
G03*
X17802500Y-3973434I-1284066J0D01*
G01*
X15645000Y-4707500D02*
G75*
G03*
X15645000Y-4707500I-100000J0D01*
G01*
X15370000Y-5515000D02*
G75*
G03*
X15370000Y-5515000I-100000J0D01*
G01*
X18605000Y-4710000D02*
G75*
G03*
X18605000Y-4710000I-100000J0D01*
G01*
X19086566Y-5415000D02*
X19002500Y-5415000D01*
X19049861Y-5575000D02*
G75*
G03*
X19049861Y-5575000I-22361J0D01*
G01*
X15022361Y-5509861D02*
G75*
G03*
X15022361Y-5509861I-22361J0D01*
G01*
X15022361Y-5572500D02*
G75*
G03*
X15022361Y-5572500I-22361J0D01*
G01*
X15022500Y-5257500D02*
X15022500Y-5415000D01*
X19087500Y-5607500D02*
X19087500Y-5772500D01*
X18605000Y-6307500D02*
G75*
G03*
X18605000Y-6307500I-100000J0D01*
G01*
X15022500Y-5757500D02*
G75*
G03*
X16222500Y-6957500I1200000J0D01*
G01*
X17802500Y-6957500D02*
G75*
G03*
X19002500Y-5757500I0J1200000D01*
G01*
X16222500Y-3973434D02*
G75*
G03*
X14938434Y-5257500I0J-1284066D01*
G01*
X15022361Y-5447500D02*
G75*
G03*
X15022361Y-5447500I-22361J0D01*
G01*
X19002500Y-5257500D02*
X19002500Y-5415000D01*
X15645000Y-6307500D02*
G75*
G03*
X15645000Y-6307500I-100000J0D01*
G01*
X16222500Y-4057500D02*
G75*
G03*
X15022500Y-5257500I0J-1200000D01*
G01*
X17802500Y-4057500D02*
X16222500Y-4057500D01*
X17322500Y-5507500D02*
G75*
G03*
X17322500Y-5507500I-300021J0D01*
G01*
X17802500Y-6957500D02*
X16222500Y-6957500D01*
X15022500Y-5607500D02*
X15022500Y-5757500D01*
X14937500Y-5763434D02*
G75*
G03*
X16221566Y-7047500I1284066J0D01*
G01*
X14937500Y-5607500D02*
X15022500Y-5607500D01*
X14938434Y-5415000D02*
X15022500Y-5415000D01*
X19002500Y-5607500D02*
X19002500Y-5757500D01*
X19049861Y-5450000D02*
G75*
G03*
X19049861Y-5450000I-22361J0D01*
G01*
X18872500Y-5510000D02*
G75*
G03*
X18872500Y-5510000I-100000J0D01*
G01*
X14937500Y-5763434D02*
X14937500Y-5607500D01*
X14938434Y-5415000D02*
X14938434Y-5257500D01*
X19086566Y-5257500D02*
X19086566Y-5415000D01*
X19049861Y-5512639D02*
G75*
G03*
X19049861Y-5512639I-22361J0D01*
G01*
X19087500Y-5607500D02*
X19002500Y-5607500D01*
X15022361Y-8809861D02*
G75*
G03*
X15022361Y-8809861I-22361J0D01*
G01*
X15022361Y-8872500D02*
G75*
G03*
X15022361Y-8872500I-22361J0D01*
G01*
X15022500Y-8557500D02*
X15022500Y-8715000D01*
X19049861Y-8875000D02*
G75*
G03*
X19049861Y-8875000I-22361J0D01*
G01*
X19086566Y-8715000D02*
X19002500Y-8715000D01*
X18605000Y-8010000D02*
G75*
G03*
X18605000Y-8010000I-100000J0D01*
G01*
X15370000Y-8815000D02*
G75*
G03*
X15370000Y-8815000I-100000J0D01*
G01*
X15645000Y-8007500D02*
G75*
G03*
X15645000Y-8007500I-100000J0D01*
G01*
X19086566Y-8557500D02*
G75*
G03*
X17802500Y-7273434I-1284066J0D01*
G01*
X19002500Y-8557500D02*
G75*
G03*
X17802500Y-7357500I-1200000J0D01*
G01*
X16221566Y-10347500D02*
X17796466Y-10347500D01*
X16222500Y-7273434D02*
X17802500Y-7273434D01*
X17796466Y-10347500D02*
G75*
G03*
X19087500Y-9072500I15934J1275000D01*
G01*
X19087500Y-8907500D02*
X19002500Y-8907500D01*
X19049861Y-8812639D02*
G75*
G03*
X19049861Y-8812639I-22361J0D01*
G01*
X19086566Y-8557500D02*
X19086566Y-8715000D01*
X14938434Y-8715000D02*
X14938434Y-8557500D01*
X14937500Y-9063434D02*
X14937500Y-8907500D01*
X18872500Y-8810000D02*
G75*
G03*
X18872500Y-8810000I-100000J0D01*
G01*
X19049861Y-8750000D02*
G75*
G03*
X19049861Y-8750000I-22361J0D01*
G01*
X19002500Y-8907500D02*
X19002500Y-9057500D01*
X14938434Y-8715000D02*
X15022500Y-8715000D01*
X14937500Y-8907500D02*
X15022500Y-8907500D01*
X14937500Y-9063434D02*
G75*
G03*
X16221566Y-10347500I1284066J0D01*
G01*
X15022500Y-8907500D02*
X15022500Y-9057500D01*
X17802500Y-10257500D02*
X16222500Y-10257500D01*
X17322500Y-8807500D02*
G75*
G03*
X17322500Y-8807500I-300021J0D01*
G01*
X17802500Y-7357500D02*
X16222500Y-7357500D01*
X16222500Y-7357500D02*
G75*
G03*
X15022500Y-8557500I0J-1200000D01*
G01*
X15645000Y-9607500D02*
G75*
G03*
X15645000Y-9607500I-100000J0D01*
G01*
X19002500Y-8557500D02*
X19002500Y-8715000D01*
X15022361Y-8747500D02*
G75*
G03*
X15022361Y-8747500I-22361J0D01*
G01*
X16222500Y-7273434D02*
G75*
G03*
X14938434Y-8557500I0J-1284066D01*
G01*
X17802500Y-10257500D02*
G75*
G03*
X19002500Y-9057500I0J1200000D01*
G01*
X15022500Y-9057500D02*
G75*
G03*
X16222500Y-10257500I1200000J0D01*
G01*
X18605000Y-9607500D02*
G75*
G03*
X18605000Y-9607500I-100000J0D01*
G01*
X19087500Y-8907500D02*
X19087500Y-9072500D01*
X19087500Y-12207500D02*
X19087500Y-12372500D01*
X18605000Y-12907500D02*
G75*
G03*
X18605000Y-12907500I-100000J0D01*
G01*
X15022500Y-12357500D02*
G75*
G03*
X16222500Y-13557500I1200000J0D01*
G01*
X17802500Y-13557500D02*
G75*
G03*
X19002500Y-12357500I0J1200000D01*
G01*
X16222500Y-10573434D02*
G75*
G03*
X14938434Y-11857500I0J-1284066D01*
G01*
X15022361Y-12047500D02*
G75*
G03*
X15022361Y-12047500I-22361J0D01*
G01*
X19002500Y-11857500D02*
X19002500Y-12015000D01*
X15645000Y-12907500D02*
G75*
G03*
X15645000Y-12907500I-100000J0D01*
G01*
X16222500Y-10657500D02*
G75*
G03*
X15022500Y-11857500I0J-1200000D01*
G01*
X17802500Y-10657500D02*
X16222500Y-10657500D01*
X17322500Y-12107500D02*
G75*
G03*
X17322500Y-12107500I-300021J0D01*
G01*
X17802500Y-13557500D02*
X16222500Y-13557500D01*
X15022500Y-12207500D02*
X15022500Y-12357500D01*
X14937500Y-12363434D02*
G75*
G03*
X16221566Y-13647500I1284066J0D01*
G01*
X14937500Y-12207500D02*
X15022500Y-12207500D01*
X14938434Y-12015000D02*
X15022500Y-12015000D01*
X19002500Y-12207500D02*
X19002500Y-12357500D01*
X19049861Y-12050000D02*
G75*
G03*
X19049861Y-12050000I-22361J0D01*
G01*
X18872500Y-12110000D02*
G75*
G03*
X18872500Y-12110000I-100000J0D01*
G01*
X14937500Y-12363434D02*
X14937500Y-12207500D01*
X14938434Y-12015000D02*
X14938434Y-11857500D01*
X19086566Y-11857500D02*
X19086566Y-12015000D01*
X19049861Y-12112639D02*
G75*
G03*
X19049861Y-12112639I-22361J0D01*
G01*
X19087500Y-12207500D02*
X19002500Y-12207500D01*
X17796466Y-13647500D02*
G75*
G03*
X19087500Y-12372500I15934J1275000D01*
G01*
X16222500Y-10573434D02*
X17802500Y-10573434D01*
X16221566Y-13647500D02*
X17796466Y-13647500D01*
X19002500Y-11857500D02*
G75*
G03*
X17802500Y-10657500I-1200000J0D01*
G01*
X19086566Y-11857500D02*
G75*
G03*
X17802500Y-10573434I-1284066J0D01*
G01*
X15645000Y-11307500D02*
G75*
G03*
X15645000Y-11307500I-100000J0D01*
G01*
X15370000Y-12115000D02*
G75*
G03*
X15370000Y-12115000I-100000J0D01*
G01*
X18605000Y-11310000D02*
G75*
G03*
X18605000Y-11310000I-100000J0D01*
G01*
X19086566Y-12015000D02*
X19002500Y-12015000D01*
X19049861Y-12175000D02*
G75*
G03*
X19049861Y-12175000I-22361J0D01*
G01*
X15022500Y-11857500D02*
X15022500Y-12015000D01*
X15022361Y-12172500D02*
G75*
G03*
X15022361Y-12172500I-22361J0D01*
G01*
X15022361Y-12109861D02*
G75*
G03*
X15022361Y-12109861I-22361J0D01*
G01*
X12447500Y-10803534D02*
G75*
G03*
X11172500Y-9512500I-1275000J15934D01*
G01*
X9373434Y-12377500D02*
X9373434Y-10797500D01*
X12447500Y-12378434D02*
X12447500Y-10803534D01*
X10657500Y-9597500D02*
G75*
G03*
X9457500Y-10797500I0J-1200000D01*
G01*
X10657500Y-9513434D02*
G75*
G03*
X9373434Y-10797500I0J-1284066D01*
G01*
X10207500Y-13055000D02*
G75*
G03*
X10207500Y-13055000I-100000J0D01*
G01*
X11015000Y-13330000D02*
G75*
G03*
X11015000Y-13330000I-100000J0D01*
G01*
X10210000Y-10095000D02*
G75*
G03*
X10210000Y-10095000I-100000J0D01*
G01*
X10815000Y-9513434D02*
X10815000Y-9597500D01*
X10997361Y-9572500D02*
G75*
G03*
X10997361Y-9572500I-22361J0D01*
G01*
X10932221Y-13600000D02*
G75*
G03*
X10932221Y-13600000I-22361J0D01*
G01*
X10994861Y-13600000D02*
G75*
G03*
X10994861Y-13600000I-22361J0D01*
G01*
X10657500Y-13577500D02*
X10815000Y-13577500D01*
X11007500Y-9512500D02*
X11172500Y-9512500D01*
X11807500Y-10095000D02*
G75*
G03*
X11807500Y-10095000I-100000J0D01*
G01*
X11157500Y-13577500D02*
G75*
G03*
X12357500Y-12377500I0J1200000D01*
G01*
X12357500Y-10797500D02*
G75*
G03*
X11157500Y-9597500I-1200000J0D01*
G01*
X9373434Y-12377500D02*
G75*
G03*
X10657500Y-13661566I1284066J0D01*
G01*
X10869861Y-13600000D02*
G75*
G03*
X10869861Y-13600000I-22361J0D01*
G01*
X10657500Y-9597500D02*
X10815000Y-9597500D01*
X11807500Y-13055000D02*
G75*
G03*
X11807500Y-13055000I-100000J0D01*
G01*
X9457500Y-12377500D02*
G75*
G03*
X10657500Y-13577500I1200000J0D01*
G01*
X9457500Y-10797500D02*
X9457500Y-12377500D01*
X11207521Y-11577521D02*
G75*
G03*
X11207521Y-11577521I-300021J0D01*
G01*
X12357500Y-10797500D02*
X12357500Y-12377500D01*
X11007500Y-13577500D02*
X11157500Y-13577500D01*
X11163434Y-13662500D02*
G75*
G03*
X12447500Y-12378434I0J1284066D01*
G01*
X11007500Y-13662500D02*
X11007500Y-13577500D01*
X10815000Y-13661566D02*
X10815000Y-13577500D01*
X11007500Y-9597500D02*
X11157500Y-9597500D01*
X10872361Y-9572500D02*
G75*
G03*
X10872361Y-9572500I-22361J0D01*
G01*
X11010000Y-9827500D02*
G75*
G03*
X11010000Y-9827500I-100000J0D01*
G01*
X11163434Y-13662500D02*
X11007500Y-13662500D01*
X10815000Y-13661566D02*
X10657500Y-13661566D01*
X10657500Y-9513434D02*
X10815000Y-9513434D01*
X10935000Y-9572500D02*
G75*
G03*
X10935000Y-9572500I-22361J0D01*
G01*
X11007500Y-9512500D02*
X11007500Y-9597500D01*
X14725000Y-12490000D02*
X14625000Y-12490000D01*
X14025021Y-12590000D02*
G75*
G03*
X14025021Y-12590000I-300021J0D01*
G01*
X12825000Y-12690000D02*
G75*
G03*
X14625000Y-12690000I900000J100000D01*
G01*
X14625000Y-12490000D02*
G75*
G03*
X12825000Y-12490000I-900000J-100000D01*
G01*
X14725000Y-12490000D02*
G75*
G03*
X12725000Y-12490000I-1000000J-100000D01*
G01*
X12725000Y-12690000D02*
G75*
G03*
X14725000Y-12690000I1000000J100000D01*
G01*
X12825000Y-12490000D02*
X12725000Y-12490000D01*
X12825000Y-12690000D02*
X12725000Y-12690000D01*
X14625000Y-12690000D02*
X14725000Y-12690000D01*
X14669721Y-12520000D02*
G75*
G03*
X14669721Y-12520000I-22361J0D01*
G01*
X14669721Y-12587639D02*
G75*
G03*
X14669721Y-12587639I-22361J0D01*
G01*
X14669721Y-12657639D02*
G75*
G03*
X14669721Y-12657639I-22361J0D01*
G01*
X12819361Y-12526361D02*
G75*
G03*
X12819361Y-12526361I-22361J0D01*
G01*
X12820361Y-12655361D02*
G75*
G03*
X12820361Y-12655361I-22361J0D01*
G01*
X12819361Y-12591361D02*
G75*
G03*
X12819361Y-12591361I-22361J0D01*
G01*
X15125000Y-10340000D02*
X15025000Y-10340000D01*
X14425021Y-10440000D02*
G75*
G03*
X14425021Y-10440000I-300021J0D01*
G01*
X13225000Y-10540000D02*
G75*
G03*
X15025000Y-10540000I900000J100000D01*
G01*
X15025000Y-10340000D02*
G75*
G03*
X13225000Y-10340000I-900000J-100000D01*
G01*
X15125000Y-10340000D02*
G75*
G03*
X13125000Y-10340000I-1000000J-100000D01*
G01*
X13125000Y-10540000D02*
G75*
G03*
X15125000Y-10540000I1000000J100000D01*
G01*
X13225000Y-10340000D02*
X13125000Y-10340000D01*
X13225000Y-10540000D02*
X13125000Y-10540000D01*
X15025000Y-10540000D02*
X15125000Y-10540000D01*
X15069721Y-10370000D02*
G75*
G03*
X15069721Y-10370000I-22361J0D01*
G01*
X15069721Y-10437639D02*
G75*
G03*
X15069721Y-10437639I-22361J0D01*
G01*
X15069721Y-10507639D02*
G75*
G03*
X15069721Y-10507639I-22361J0D01*
G01*
X13219361Y-10376361D02*
G75*
G03*
X13219361Y-10376361I-22361J0D01*
G01*
X13220361Y-10505361D02*
G75*
G03*
X13220361Y-10505361I-22361J0D01*
G01*
X13219361Y-10441361D02*
G75*
G03*
X13219361Y-10441361I-22361J0D01*
G01*
X10653534Y-3952500D02*
G75*
G03*
X9362500Y-5227500I-15934J-1275000D01*
G01*
X12227500Y-7026566D02*
X10647500Y-7026566D01*
X12228434Y-3952500D02*
X10653534Y-3952500D01*
X9447500Y-5742500D02*
G75*
G03*
X10647500Y-6942500I1200000J0D01*
G01*
X9363434Y-5742500D02*
G75*
G03*
X10647500Y-7026566I1284066J0D01*
G01*
X13005000Y-6292500D02*
G75*
G03*
X13005000Y-6292500I-100000J0D01*
G01*
X13280000Y-5485000D02*
G75*
G03*
X13280000Y-5485000I-100000J0D01*
G01*
X10045000Y-6290000D02*
G75*
G03*
X10045000Y-6290000I-100000J0D01*
G01*
X9363434Y-5585000D02*
X9447500Y-5585000D01*
X9444861Y-5425000D02*
G75*
G03*
X9444861Y-5425000I-22361J0D01*
G01*
X13472361Y-5490139D02*
G75*
G03*
X13472361Y-5490139I-22361J0D01*
G01*
X13472361Y-5427500D02*
G75*
G03*
X13472361Y-5427500I-22361J0D01*
G01*
X13427500Y-5742500D02*
X13427500Y-5585000D01*
X9362500Y-5392500D02*
X9362500Y-5227500D01*
X10045000Y-4692500D02*
G75*
G03*
X10045000Y-4692500I-100000J0D01*
G01*
X13427500Y-5242500D02*
G75*
G03*
X12227500Y-4042500I-1200000J0D01*
G01*
X10647500Y-4042500D02*
G75*
G03*
X9447500Y-5242500I0J-1200000D01*
G01*
X12227500Y-7026566D02*
G75*
G03*
X13511566Y-5742500I0J1284066D01*
G01*
X13472361Y-5552500D02*
G75*
G03*
X13472361Y-5552500I-22361J0D01*
G01*
X9447500Y-5742500D02*
X9447500Y-5585000D01*
X13005000Y-4692500D02*
G75*
G03*
X13005000Y-4692500I-100000J0D01*
G01*
X12227500Y-6942500D02*
G75*
G03*
X13427500Y-5742500I0J1200000D01*
G01*
X10647500Y-6942500D02*
X12227500Y-6942500D01*
X11727542Y-5492500D02*
G75*
G03*
X11727542Y-5492500I-300021J0D01*
G01*
X10647500Y-4042500D02*
X12227500Y-4042500D01*
X13427500Y-5392500D02*
X13427500Y-5242500D01*
X13512500Y-5236566D02*
G75*
G03*
X12228434Y-3952500I-1284066J0D01*
G01*
X13512500Y-5392500D02*
X13427500Y-5392500D01*
X13511566Y-5585000D02*
X13427500Y-5585000D01*
X9447500Y-5392500D02*
X9447500Y-5242500D01*
X9444861Y-5550000D02*
G75*
G03*
X9444861Y-5550000I-22361J0D01*
G01*
X9777500Y-5490000D02*
G75*
G03*
X9777500Y-5490000I-100000J0D01*
G01*
X13512500Y-5236566D02*
X13512500Y-5392500D01*
X13511566Y-5585000D02*
X13511566Y-5742500D01*
X9363434Y-5742500D02*
X9363434Y-5585000D01*
X9444861Y-5487361D02*
G75*
G03*
X9444861Y-5487361I-22361J0D01*
G01*
X9362500Y-5392500D02*
X9447500Y-5392500D01*
X15225000Y-7090000D02*
X15125000Y-7090000D01*
X14525021Y-7190000D02*
G75*
G03*
X14525021Y-7190000I-300021J0D01*
G01*
X13325000Y-7290000D02*
G75*
G03*
X15125000Y-7290000I900000J100000D01*
G01*
X15125000Y-7090000D02*
G75*
G03*
X13325000Y-7090000I-900000J-100000D01*
G01*
X15225000Y-7090000D02*
G75*
G03*
X13225000Y-7090000I-1000000J-100000D01*
G01*
X13225000Y-7290000D02*
G75*
G03*
X15225000Y-7290000I1000000J100000D01*
G01*
X13325000Y-7090000D02*
X13225000Y-7090000D01*
X13325000Y-7290000D02*
X13225000Y-7290000D01*
X15125000Y-7290000D02*
X15225000Y-7290000D01*
X15169721Y-7120000D02*
G75*
G03*
X15169721Y-7120000I-22361J0D01*
G01*
X15169721Y-7187639D02*
G75*
G03*
X15169721Y-7187639I-22361J0D01*
G01*
X15169721Y-7257639D02*
G75*
G03*
X15169721Y-7257639I-22361J0D01*
G01*
X13319361Y-7126361D02*
G75*
G03*
X13319361Y-7126361I-22361J0D01*
G01*
X13320361Y-7255361D02*
G75*
G03*
X13320361Y-7255361I-22361J0D01*
G01*
X13319361Y-7191361D02*
G75*
G03*
X13319361Y-7191361I-22361J0D01*
G01*
X11375000Y-8140000D02*
X11275000Y-8140000D01*
X10675021Y-8240000D02*
G75*
G03*
X10675021Y-8240000I-300021J0D01*
G01*
X9475000Y-8340000D02*
G75*
G03*
X11275000Y-8340000I900000J100000D01*
G01*
X11275000Y-8140000D02*
G75*
G03*
X9475000Y-8140000I-900000J-100000D01*
G01*
X11375000Y-8140000D02*
G75*
G03*
X9375000Y-8140000I-1000000J-100000D01*
G01*
X9375000Y-8340000D02*
G75*
G03*
X11375000Y-8340000I1000000J100000D01*
G01*
X9475000Y-8140000D02*
X9375000Y-8140000D01*
X9475000Y-8340000D02*
X9375000Y-8340000D01*
X11275000Y-8340000D02*
X11375000Y-8340000D01*
X11319721Y-8170000D02*
G75*
G03*
X11319721Y-8170000I-22361J0D01*
G01*
X11319721Y-8237639D02*
G75*
G03*
X11319721Y-8237639I-22361J0D01*
G01*
X11319721Y-8307639D02*
G75*
G03*
X11319721Y-8307639I-22361J0D01*
G01*
X9469361Y-8176361D02*
G75*
G03*
X9469361Y-8176361I-22361J0D01*
G01*
X9470361Y-8305361D02*
G75*
G03*
X9470361Y-8305361I-22361J0D01*
G01*
X9469361Y-8241361D02*
G75*
G03*
X9469361Y-8241361I-22361J0D01*
G01*
X13575000Y-8640000D02*
X13475000Y-8640000D01*
X12875021Y-8740000D02*
G75*
G03*
X12875021Y-8740000I-300021J0D01*
G01*
X11675000Y-8840000D02*
G75*
G03*
X13475000Y-8840000I900000J100000D01*
G01*
X13475000Y-8640000D02*
G75*
G03*
X11675000Y-8640000I-900000J-100000D01*
G01*
X13575000Y-8640000D02*
G75*
G03*
X11575000Y-8640000I-1000000J-100000D01*
G01*
X11575000Y-8840000D02*
G75*
G03*
X13575000Y-8840000I1000000J100000D01*
G01*
X11675000Y-8640000D02*
X11575000Y-8640000D01*
X11675000Y-8840000D02*
X11575000Y-8840000D01*
X13475000Y-8840000D02*
X13575000Y-8840000D01*
X13519721Y-8670000D02*
G75*
G03*
X13519721Y-8670000I-22361J0D01*
G01*
X13519721Y-8737639D02*
G75*
G03*
X13519721Y-8737639I-22361J0D01*
G01*
X13519721Y-8807639D02*
G75*
G03*
X13519721Y-8807639I-22361J0D01*
G01*
X11669361Y-8676361D02*
G75*
G03*
X11669361Y-8676361I-22361J0D01*
G01*
X11670361Y-8805361D02*
G75*
G03*
X11670361Y-8805361I-22361J0D01*
G01*
X11669361Y-8741361D02*
G75*
G03*
X11669361Y-8741361I-22361J0D01*
G01*
D11*
D12*
X10836900Y-4411900D02*
X10913100Y-4488100D01*
X10913100Y-4411900D02*
X10836900Y-4488100D01*
X11911900Y-10986900D02*
X11988100Y-11063100D01*
X11988100Y-10986900D02*
X11911900Y-11063100D01*
X11911900Y-12086900D02*
X11988100Y-12163100D01*
X11988100Y-12086900D02*
X11911900Y-12163100D01*
X11936900Y-4411900D02*
X12013100Y-4488100D01*
X12013100Y-4411900D02*
X11936900Y-4488100D01*
X16436900Y-6511900D02*
X16513100Y-6588100D01*
X16513100Y-6511900D02*
X16436900Y-6588100D01*
X16436900Y-9811900D02*
X16513100Y-9888100D01*
X16513100Y-9811900D02*
X16436900Y-9888100D01*
X16436900Y-13111900D02*
X16513100Y-13188100D01*
X16513100Y-13111900D02*
X16436900Y-13188100D01*
X17536900Y-6511900D02*
X17613100Y-6588100D01*
X17613100Y-6511900D02*
X17536900Y-6588100D01*
X17536900Y-9811900D02*
X17613100Y-9888100D01*
X17613100Y-9811900D02*
X17536900Y-9888100D01*
X17536900Y-13111900D02*
X17613100Y-13188100D01*
X17613100Y-13111900D02*
X17536900Y-13188100D01*
D13*
X11217500Y-4298500D02*
G75*
G03*
X11217500Y-4298500I-40000J0D01*
G01*
X11717500Y-4298500D02*
G75*
G03*
X11717500Y-4298500I-40000J0D01*
G01*
X12141500Y-11327500D02*
G75*
G03*
X12141500Y-11327500I-40000J0D01*
G01*
X12141500Y-11827500D02*
G75*
G03*
X12141500Y-11827500I-40000J0D01*
G01*
X16812500Y-6701500D02*
G75*
G03*
X16812500Y-6701500I-40000J0D01*
G01*
X16812500Y-10001500D02*
G75*
G03*
X16812500Y-10001500I-40000J0D01*
G01*
X16812500Y-13301500D02*
G75*
G03*
X16812500Y-13301500I-40000J0D01*
G01*
X17312500Y-6701500D02*
G75*
G03*
X17312500Y-6701500I-40000J0D01*
G01*
X17312500Y-10001500D02*
G75*
G03*
X17312500Y-10001500I-40000J0D01*
G01*
X17312500Y-13301500D02*
G75*
G03*
X17312500Y-13301500I-40000J0D01*
G01*
D11*
X10267500Y-5392500D02*
X10267500Y-5592500D01*
X10167500Y-5492500D02*
X10367500Y-5492500D01*
X10907500Y-10317500D02*
X10907500Y-10517500D01*
X10807500Y-10417500D02*
X11007500Y-10417500D01*
X10907500Y-12637500D02*
X10907500Y-12837500D01*
X10807500Y-12737500D02*
X11007500Y-12737500D01*
X12587500Y-5392500D02*
X12587500Y-5592500D01*
X12487500Y-5492500D02*
X12687500Y-5492500D01*
X15862500Y-5407500D02*
X15862500Y-5607500D01*
X15762500Y-5507500D02*
X15962500Y-5507500D01*
X15862500Y-8707500D02*
X15862500Y-8907500D01*
X15762500Y-8807500D02*
X15962500Y-8807500D01*
X15862500Y-12007500D02*
X15862500Y-12207500D01*
X15762500Y-12107500D02*
X15962500Y-12107500D01*
X18182500Y-5407500D02*
X18182500Y-5607500D01*
X18082500Y-5507500D02*
X18282500Y-5507500D01*
X18182500Y-8707500D02*
X18182500Y-8907500D01*
X18082500Y-8807500D02*
X18282500Y-8807500D01*
X18182500Y-12007500D02*
X18182500Y-12207500D01*
X18082500Y-12107500D02*
X18282500Y-12107500D01*
X9488277Y-14118984D02*
X9488277Y-13918984D01*
X9488277Y-13918984D02*
X9535896Y-13918984D01*
X9535896Y-13918984D02*
X9564467Y-13928508D01*
X9564467Y-13928508D02*
X9583515Y-13947555D01*
X9583515Y-13947555D02*
X9593039Y-13966603D01*
X9593039Y-13966603D02*
X9602563Y-14004698D01*
X9602563Y-14004698D02*
X9602563Y-14033269D01*
X9602563Y-14033269D02*
X9593039Y-14071365D01*
X9593039Y-14071365D02*
X9583515Y-14090412D01*
X9583515Y-14090412D02*
X9564467Y-14109460D01*
X9564467Y-14109460D02*
X9535896Y-14118984D01*
X9535896Y-14118984D02*
X9488277Y-14118984D01*
X9688277Y-14118984D02*
X9688277Y-13985650D01*
X9688277Y-14023746D02*
X9697801Y-14004698D01*
X9697801Y-14004698D02*
X9707324Y-13995174D01*
X9707324Y-13995174D02*
X9726372Y-13985650D01*
X9726372Y-13985650D02*
X9745420Y-13985650D01*
X9812086Y-14118984D02*
X9812086Y-13985650D01*
X9812086Y-13918984D02*
X9802563Y-13928508D01*
X9802563Y-13928508D02*
X9812086Y-13938031D01*
X9812086Y-13938031D02*
X9821610Y-13928508D01*
X9821610Y-13928508D02*
X9812086Y-13918984D01*
X9812086Y-13918984D02*
X9812086Y-13938031D01*
X9935896Y-14118984D02*
X9916848Y-14109460D01*
X9916848Y-14109460D02*
X9907324Y-14090412D01*
X9907324Y-14090412D02*
X9907324Y-13918984D01*
X10040658Y-14118984D02*
X10021610Y-14109460D01*
X10021610Y-14109460D02*
X10012086Y-14090412D01*
X10012086Y-14090412D02*
X10012086Y-13918984D01*
X10269229Y-14118984D02*
X10269229Y-13918984D01*
X10269229Y-13918984D02*
X10335896Y-14061841D01*
X10335896Y-14061841D02*
X10402563Y-13918984D01*
X10402563Y-13918984D02*
X10402563Y-14118984D01*
X10583515Y-14118984D02*
X10583515Y-14014222D01*
X10583515Y-14014222D02*
X10573991Y-13995174D01*
X10573991Y-13995174D02*
X10554944Y-13985650D01*
X10554944Y-13985650D02*
X10516848Y-13985650D01*
X10516848Y-13985650D02*
X10497801Y-13995174D01*
X10583515Y-14109460D02*
X10564467Y-14118984D01*
X10564467Y-14118984D02*
X10516848Y-14118984D01*
X10516848Y-14118984D02*
X10497801Y-14109460D01*
X10497801Y-14109460D02*
X10488277Y-14090412D01*
X10488277Y-14090412D02*
X10488277Y-14071365D01*
X10488277Y-14071365D02*
X10497801Y-14052317D01*
X10497801Y-14052317D02*
X10516848Y-14042793D01*
X10516848Y-14042793D02*
X10564467Y-14042793D01*
X10564467Y-14042793D02*
X10583515Y-14033269D01*
X10678753Y-13985650D02*
X10678753Y-14185650D01*
X10678753Y-13995174D02*
X10697801Y-13985650D01*
X10697801Y-13985650D02*
X10735896Y-13985650D01*
X10735896Y-13985650D02*
X10754944Y-13995174D01*
X10754944Y-13995174D02*
X10764467Y-14004698D01*
X10764467Y-14004698D02*
X10773991Y-14023746D01*
X10773991Y-14023746D02*
X10773991Y-14080888D01*
X10773991Y-14080888D02*
X10764467Y-14099936D01*
X10764467Y-14099936D02*
X10754944Y-14109460D01*
X10754944Y-14109460D02*
X10735896Y-14118984D01*
X10735896Y-14118984D02*
X10697801Y-14118984D01*
X10697801Y-14118984D02*
X10678753Y-14109460D01*
X10859705Y-14099936D02*
X10869229Y-14109460D01*
X10869229Y-14109460D02*
X10859705Y-14118984D01*
X10859705Y-14118984D02*
X10850182Y-14109460D01*
X10850182Y-14109460D02*
X10859705Y-14099936D01*
X10859705Y-14099936D02*
X10859705Y-14118984D01*
X10859705Y-13995174D02*
X10869229Y-14004698D01*
X10869229Y-14004698D02*
X10859705Y-14014222D01*
X10859705Y-14014222D02*
X10850182Y-14004698D01*
X10850182Y-14004698D02*
X10859705Y-13995174D01*
X10859705Y-13995174D02*
X10859705Y-14014222D01*
D12*
X9151300Y-14409400D02*
X9227500Y-14485600D01*
X9227500Y-14409400D02*
X9151300Y-14485600D01*
D11*
X9526372Y-14338984D02*
X9545420Y-14338984D01*
X9545420Y-14338984D02*
X9564467Y-14348508D01*
X9564467Y-14348508D02*
X9573991Y-14358031D01*
X9573991Y-14358031D02*
X9583515Y-14377079D01*
X9583515Y-14377079D02*
X9593039Y-14415174D01*
X9593039Y-14415174D02*
X9593039Y-14462793D01*
X9593039Y-14462793D02*
X9583515Y-14500888D01*
X9583515Y-14500888D02*
X9573991Y-14519936D01*
X9573991Y-14519936D02*
X9564467Y-14529460D01*
X9564467Y-14529460D02*
X9545420Y-14538984D01*
X9545420Y-14538984D02*
X9526372Y-14538984D01*
X9526372Y-14538984D02*
X9507324Y-14529460D01*
X9507324Y-14529460D02*
X9497801Y-14519936D01*
X9497801Y-14519936D02*
X9488277Y-14500888D01*
X9488277Y-14500888D02*
X9478753Y-14462793D01*
X9478753Y-14462793D02*
X9478753Y-14415174D01*
X9478753Y-14415174D02*
X9488277Y-14377079D01*
X9488277Y-14377079D02*
X9497801Y-14358031D01*
X9497801Y-14358031D02*
X9507324Y-14348508D01*
X9507324Y-14348508D02*
X9526372Y-14338984D01*
X9678753Y-14519936D02*
X9688277Y-14529460D01*
X9688277Y-14529460D02*
X9678753Y-14538984D01*
X9678753Y-14538984D02*
X9669229Y-14529460D01*
X9669229Y-14529460D02*
X9678753Y-14519936D01*
X9678753Y-14519936D02*
X9678753Y-14538984D01*
X9754944Y-14338984D02*
X9888277Y-14338984D01*
X9888277Y-14338984D02*
X9802563Y-14538984D01*
X10050182Y-14338984D02*
X10012086Y-14338984D01*
X10012086Y-14338984D02*
X9993039Y-14348508D01*
X9993039Y-14348508D02*
X9983515Y-14358031D01*
X9983515Y-14358031D02*
X9964467Y-14386603D01*
X9964467Y-14386603D02*
X9954944Y-14424698D01*
X9954944Y-14424698D02*
X9954944Y-14500888D01*
X9954944Y-14500888D02*
X9964467Y-14519936D01*
X9964467Y-14519936D02*
X9973991Y-14529460D01*
X9973991Y-14529460D02*
X9993039Y-14538984D01*
X9993039Y-14538984D02*
X10031134Y-14538984D01*
X10031134Y-14538984D02*
X10050182Y-14529460D01*
X10050182Y-14529460D02*
X10059705Y-14519936D01*
X10059705Y-14519936D02*
X10069229Y-14500888D01*
X10069229Y-14500888D02*
X10069229Y-14453269D01*
X10069229Y-14453269D02*
X10059705Y-14434222D01*
X10059705Y-14434222D02*
X10050182Y-14424698D01*
X10050182Y-14424698D02*
X10031134Y-14415174D01*
X10031134Y-14415174D02*
X9993039Y-14415174D01*
X9993039Y-14415174D02*
X9973991Y-14424698D01*
X9973991Y-14424698D02*
X9964467Y-14434222D01*
X9964467Y-14434222D02*
X9954944Y-14453269D01*
X10145420Y-14358031D02*
X10154944Y-14348508D01*
X10154944Y-14348508D02*
X10173991Y-14338984D01*
X10173991Y-14338984D02*
X10221610Y-14338984D01*
X10221610Y-14338984D02*
X10240658Y-14348508D01*
X10240658Y-14348508D02*
X10250182Y-14358031D01*
X10250182Y-14358031D02*
X10259705Y-14377079D01*
X10259705Y-14377079D02*
X10259705Y-14396127D01*
X10259705Y-14396127D02*
X10250182Y-14424698D01*
X10250182Y-14424698D02*
X10135896Y-14538984D01*
X10135896Y-14538984D02*
X10259705Y-14538984D01*
X10345420Y-14538984D02*
X10345420Y-14405650D01*
X10345420Y-14424698D02*
X10354944Y-14415174D01*
X10354944Y-14415174D02*
X10373991Y-14405650D01*
X10373991Y-14405650D02*
X10402563Y-14405650D01*
X10402563Y-14405650D02*
X10421610Y-14415174D01*
X10421610Y-14415174D02*
X10431134Y-14434222D01*
X10431134Y-14434222D02*
X10431134Y-14538984D01*
X10431134Y-14434222D02*
X10440658Y-14415174D01*
X10440658Y-14415174D02*
X10459705Y-14405650D01*
X10459705Y-14405650D02*
X10488277Y-14405650D01*
X10488277Y-14405650D02*
X10507325Y-14415174D01*
X10507325Y-14415174D02*
X10516848Y-14434222D01*
X10516848Y-14434222D02*
X10516848Y-14538984D01*
X10612086Y-14538984D02*
X10612086Y-14405650D01*
X10612086Y-14424698D02*
X10621610Y-14415174D01*
X10621610Y-14415174D02*
X10640658Y-14405650D01*
X10640658Y-14405650D02*
X10669229Y-14405650D01*
X10669229Y-14405650D02*
X10688277Y-14415174D01*
X10688277Y-14415174D02*
X10697801Y-14434222D01*
X10697801Y-14434222D02*
X10697801Y-14538984D01*
X10697801Y-14434222D02*
X10707325Y-14415174D01*
X10707325Y-14415174D02*
X10726372Y-14405650D01*
X10726372Y-14405650D02*
X10754944Y-14405650D01*
X10754944Y-14405650D02*
X10773991Y-14415174D01*
X10773991Y-14415174D02*
X10783515Y-14434222D01*
X10783515Y-14434222D02*
X10783515Y-14538984D01*
X11173991Y-14329460D02*
X11002563Y-14586603D01*
X11431134Y-14338984D02*
X11450182Y-14338984D01*
X11450182Y-14338984D02*
X11469229Y-14348508D01*
X11469229Y-14348508D02*
X11478753Y-14358031D01*
X11478753Y-14358031D02*
X11488277Y-14377079D01*
X11488277Y-14377079D02*
X11497801Y-14415174D01*
X11497801Y-14415174D02*
X11497801Y-14462793D01*
X11497801Y-14462793D02*
X11488277Y-14500888D01*
X11488277Y-14500888D02*
X11478753Y-14519936D01*
X11478753Y-14519936D02*
X11469229Y-14529460D01*
X11469229Y-14529460D02*
X11450182Y-14538984D01*
X11450182Y-14538984D02*
X11431134Y-14538984D01*
X11431134Y-14538984D02*
X11412086Y-14529460D01*
X11412086Y-14529460D02*
X11402563Y-14519936D01*
X11402563Y-14519936D02*
X11393039Y-14500888D01*
X11393039Y-14500888D02*
X11383515Y-14462793D01*
X11383515Y-14462793D02*
X11383515Y-14415174D01*
X11383515Y-14415174D02*
X11393039Y-14377079D01*
X11393039Y-14377079D02*
X11402563Y-14358031D01*
X11402563Y-14358031D02*
X11412086Y-14348508D01*
X11412086Y-14348508D02*
X11431134Y-14338984D01*
X11583515Y-14519936D02*
X11593039Y-14529460D01*
X11593039Y-14529460D02*
X11583515Y-14538984D01*
X11583515Y-14538984D02*
X11573991Y-14529460D01*
X11573991Y-14529460D02*
X11583515Y-14519936D01*
X11583515Y-14519936D02*
X11583515Y-14538984D01*
X11716848Y-14338984D02*
X11735896Y-14338984D01*
X11735896Y-14338984D02*
X11754944Y-14348508D01*
X11754944Y-14348508D02*
X11764467Y-14358031D01*
X11764467Y-14358031D02*
X11773991Y-14377079D01*
X11773991Y-14377079D02*
X11783515Y-14415174D01*
X11783515Y-14415174D02*
X11783515Y-14462793D01*
X11783515Y-14462793D02*
X11773991Y-14500888D01*
X11773991Y-14500888D02*
X11764467Y-14519936D01*
X11764467Y-14519936D02*
X11754944Y-14529460D01*
X11754944Y-14529460D02*
X11735896Y-14538984D01*
X11735896Y-14538984D02*
X11716848Y-14538984D01*
X11716848Y-14538984D02*
X11697801Y-14529460D01*
X11697801Y-14529460D02*
X11688277Y-14519936D01*
X11688277Y-14519936D02*
X11678753Y-14500888D01*
X11678753Y-14500888D02*
X11669229Y-14462793D01*
X11669229Y-14462793D02*
X11669229Y-14415174D01*
X11669229Y-14415174D02*
X11678753Y-14377079D01*
X11678753Y-14377079D02*
X11688277Y-14358031D01*
X11688277Y-14358031D02*
X11697801Y-14348508D01*
X11697801Y-14348508D02*
X11716848Y-14338984D01*
X11850182Y-14338984D02*
X11973991Y-14338984D01*
X11973991Y-14338984D02*
X11907325Y-14415174D01*
X11907325Y-14415174D02*
X11935896Y-14415174D01*
X11935896Y-14415174D02*
X11954944Y-14424698D01*
X11954944Y-14424698D02*
X11964467Y-14434222D01*
X11964467Y-14434222D02*
X11973991Y-14453269D01*
X11973991Y-14453269D02*
X11973991Y-14500888D01*
X11973991Y-14500888D02*
X11964467Y-14519936D01*
X11964467Y-14519936D02*
X11954944Y-14529460D01*
X11954944Y-14529460D02*
X11935896Y-14538984D01*
X11935896Y-14538984D02*
X11878753Y-14538984D01*
X11878753Y-14538984D02*
X11859706Y-14529460D01*
X11859706Y-14529460D02*
X11850182Y-14519936D01*
X12097801Y-14338984D02*
X12116848Y-14338984D01*
X12116848Y-14338984D02*
X12135896Y-14348508D01*
X12135896Y-14348508D02*
X12145420Y-14358031D01*
X12145420Y-14358031D02*
X12154944Y-14377079D01*
X12154944Y-14377079D02*
X12164467Y-14415174D01*
X12164467Y-14415174D02*
X12164467Y-14462793D01*
X12164467Y-14462793D02*
X12154944Y-14500888D01*
X12154944Y-14500888D02*
X12145420Y-14519936D01*
X12145420Y-14519936D02*
X12135896Y-14529460D01*
X12135896Y-14529460D02*
X12116848Y-14538984D01*
X12116848Y-14538984D02*
X12097801Y-14538984D01*
X12097801Y-14538984D02*
X12078753Y-14529460D01*
X12078753Y-14529460D02*
X12069229Y-14519936D01*
X12069229Y-14519936D02*
X12059706Y-14500888D01*
X12059706Y-14500888D02*
X12050182Y-14462793D01*
X12050182Y-14462793D02*
X12050182Y-14415174D01*
X12050182Y-14415174D02*
X12059706Y-14377079D01*
X12059706Y-14377079D02*
X12069229Y-14358031D01*
X12069229Y-14358031D02*
X12078753Y-14348508D01*
X12078753Y-14348508D02*
X12097801Y-14338984D01*
X12288277Y-14338984D02*
X12307325Y-14338984D01*
X12307325Y-14338984D02*
X12326372Y-14348508D01*
X12326372Y-14348508D02*
X12335896Y-14358031D01*
X12335896Y-14358031D02*
X12345420Y-14377079D01*
X12345420Y-14377079D02*
X12354944Y-14415174D01*
X12354944Y-14415174D02*
X12354944Y-14462793D01*
X12354944Y-14462793D02*
X12345420Y-14500888D01*
X12345420Y-14500888D02*
X12335896Y-14519936D01*
X12335896Y-14519936D02*
X12326372Y-14529460D01*
X12326372Y-14529460D02*
X12307325Y-14538984D01*
X12307325Y-14538984D02*
X12288277Y-14538984D01*
X12288277Y-14538984D02*
X12269229Y-14529460D01*
X12269229Y-14529460D02*
X12259706Y-14519936D01*
X12259706Y-14519936D02*
X12250182Y-14500888D01*
X12250182Y-14500888D02*
X12240658Y-14462793D01*
X12240658Y-14462793D02*
X12240658Y-14415174D01*
X12240658Y-14415174D02*
X12250182Y-14377079D01*
X12250182Y-14377079D02*
X12259706Y-14358031D01*
X12259706Y-14358031D02*
X12269229Y-14348508D01*
X12269229Y-14348508D02*
X12288277Y-14338984D01*
X12431134Y-14338984D02*
X12431134Y-14377079D01*
X12507325Y-14338984D02*
X12507325Y-14377079D01*
X12802563Y-14615174D02*
X12793039Y-14605650D01*
X12793039Y-14605650D02*
X12773991Y-14577079D01*
X12773991Y-14577079D02*
X12764468Y-14558031D01*
X12764468Y-14558031D02*
X12754944Y-14529460D01*
X12754944Y-14529460D02*
X12745420Y-14481841D01*
X12745420Y-14481841D02*
X12745420Y-14443746D01*
X12745420Y-14443746D02*
X12754944Y-14396127D01*
X12754944Y-14396127D02*
X12764468Y-14367555D01*
X12764468Y-14367555D02*
X12773991Y-14348508D01*
X12773991Y-14348508D02*
X12793039Y-14319936D01*
X12793039Y-14319936D02*
X12802563Y-14310412D01*
X12983515Y-14538984D02*
X12869229Y-14538984D01*
X12926372Y-14538984D02*
X12926372Y-14338984D01*
X12926372Y-14338984D02*
X12907325Y-14367555D01*
X12907325Y-14367555D02*
X12888277Y-14386603D01*
X12888277Y-14386603D02*
X12869229Y-14396127D01*
X13107325Y-14338984D02*
X13126372Y-14338984D01*
X13126372Y-14338984D02*
X13145420Y-14348508D01*
X13145420Y-14348508D02*
X13154944Y-14358031D01*
X13154944Y-14358031D02*
X13164468Y-14377079D01*
X13164468Y-14377079D02*
X13173991Y-14415174D01*
X13173991Y-14415174D02*
X13173991Y-14462793D01*
X13173991Y-14462793D02*
X13164468Y-14500888D01*
X13164468Y-14500888D02*
X13154944Y-14519936D01*
X13154944Y-14519936D02*
X13145420Y-14529460D01*
X13145420Y-14529460D02*
X13126372Y-14538984D01*
X13126372Y-14538984D02*
X13107325Y-14538984D01*
X13107325Y-14538984D02*
X13088277Y-14529460D01*
X13088277Y-14529460D02*
X13078753Y-14519936D01*
X13078753Y-14519936D02*
X13069229Y-14500888D01*
X13069229Y-14500888D02*
X13059706Y-14462793D01*
X13059706Y-14462793D02*
X13059706Y-14415174D01*
X13059706Y-14415174D02*
X13069229Y-14377079D01*
X13069229Y-14377079D02*
X13078753Y-14358031D01*
X13078753Y-14358031D02*
X13088277Y-14348508D01*
X13088277Y-14348508D02*
X13107325Y-14338984D01*
X13412087Y-14538984D02*
X13412087Y-14338984D01*
X13497801Y-14538984D02*
X13497801Y-14434222D01*
X13497801Y-14434222D02*
X13488277Y-14415174D01*
X13488277Y-14415174D02*
X13469230Y-14405650D01*
X13469230Y-14405650D02*
X13440658Y-14405650D01*
X13440658Y-14405650D02*
X13421610Y-14415174D01*
X13421610Y-14415174D02*
X13412087Y-14424698D01*
X13621610Y-14538984D02*
X13602563Y-14529460D01*
X13602563Y-14529460D02*
X13593039Y-14519936D01*
X13593039Y-14519936D02*
X13583515Y-14500888D01*
X13583515Y-14500888D02*
X13583515Y-14443746D01*
X13583515Y-14443746D02*
X13593039Y-14424698D01*
X13593039Y-14424698D02*
X13602563Y-14415174D01*
X13602563Y-14415174D02*
X13621610Y-14405650D01*
X13621610Y-14405650D02*
X13650182Y-14405650D01*
X13650182Y-14405650D02*
X13669230Y-14415174D01*
X13669230Y-14415174D02*
X13678753Y-14424698D01*
X13678753Y-14424698D02*
X13688277Y-14443746D01*
X13688277Y-14443746D02*
X13688277Y-14500888D01*
X13688277Y-14500888D02*
X13678753Y-14519936D01*
X13678753Y-14519936D02*
X13669230Y-14529460D01*
X13669230Y-14529460D02*
X13650182Y-14538984D01*
X13650182Y-14538984D02*
X13621610Y-14538984D01*
X13802563Y-14538984D02*
X13783515Y-14529460D01*
X13783515Y-14529460D02*
X13773991Y-14510412D01*
X13773991Y-14510412D02*
X13773991Y-14338984D01*
X13954944Y-14529460D02*
X13935896Y-14538984D01*
X13935896Y-14538984D02*
X13897801Y-14538984D01*
X13897801Y-14538984D02*
X13878753Y-14529460D01*
X13878753Y-14529460D02*
X13869230Y-14510412D01*
X13869230Y-14510412D02*
X13869230Y-14434222D01*
X13869230Y-14434222D02*
X13878753Y-14415174D01*
X13878753Y-14415174D02*
X13897801Y-14405650D01*
X13897801Y-14405650D02*
X13935896Y-14405650D01*
X13935896Y-14405650D02*
X13954944Y-14415174D01*
X13954944Y-14415174D02*
X13964468Y-14434222D01*
X13964468Y-14434222D02*
X13964468Y-14453269D01*
X13964468Y-14453269D02*
X13869230Y-14472317D01*
X14040658Y-14529460D02*
X14059706Y-14538984D01*
X14059706Y-14538984D02*
X14097801Y-14538984D01*
X14097801Y-14538984D02*
X14116849Y-14529460D01*
X14116849Y-14529460D02*
X14126372Y-14510412D01*
X14126372Y-14510412D02*
X14126372Y-14500888D01*
X14126372Y-14500888D02*
X14116849Y-14481841D01*
X14116849Y-14481841D02*
X14097801Y-14472317D01*
X14097801Y-14472317D02*
X14069230Y-14472317D01*
X14069230Y-14472317D02*
X14050182Y-14462793D01*
X14050182Y-14462793D02*
X14040658Y-14443746D01*
X14040658Y-14443746D02*
X14040658Y-14434222D01*
X14040658Y-14434222D02*
X14050182Y-14415174D01*
X14050182Y-14415174D02*
X14069230Y-14405650D01*
X14069230Y-14405650D02*
X14097801Y-14405650D01*
X14097801Y-14405650D02*
X14116849Y-14415174D01*
X14193039Y-14615174D02*
X14202563Y-14605650D01*
X14202563Y-14605650D02*
X14221611Y-14577079D01*
X14221611Y-14577079D02*
X14231134Y-14558031D01*
X14231134Y-14558031D02*
X14240658Y-14529460D01*
X14240658Y-14529460D02*
X14250182Y-14481841D01*
X14250182Y-14481841D02*
X14250182Y-14443746D01*
X14250182Y-14443746D02*
X14240658Y-14396127D01*
X14240658Y-14396127D02*
X14231134Y-14367555D01*
X14231134Y-14367555D02*
X14221611Y-14348508D01*
X14221611Y-14348508D02*
X14202563Y-14319936D01*
X14202563Y-14319936D02*
X14193039Y-14310412D01*
D13*
X9227500Y-14711500D02*
G75*
G03*
X9227500Y-14711500I-40000J0D01*
G01*
D11*
X9526372Y-14602984D02*
X9545420Y-14602984D01*
X9545420Y-14602984D02*
X9564467Y-14612508D01*
X9564467Y-14612508D02*
X9573991Y-14622031D01*
X9573991Y-14622031D02*
X9583515Y-14641079D01*
X9583515Y-14641079D02*
X9593039Y-14679174D01*
X9593039Y-14679174D02*
X9593039Y-14726793D01*
X9593039Y-14726793D02*
X9583515Y-14764888D01*
X9583515Y-14764888D02*
X9573991Y-14783936D01*
X9573991Y-14783936D02*
X9564467Y-14793460D01*
X9564467Y-14793460D02*
X9545420Y-14802984D01*
X9545420Y-14802984D02*
X9526372Y-14802984D01*
X9526372Y-14802984D02*
X9507324Y-14793460D01*
X9507324Y-14793460D02*
X9497801Y-14783936D01*
X9497801Y-14783936D02*
X9488277Y-14764888D01*
X9488277Y-14764888D02*
X9478753Y-14726793D01*
X9478753Y-14726793D02*
X9478753Y-14679174D01*
X9478753Y-14679174D02*
X9488277Y-14641079D01*
X9488277Y-14641079D02*
X9497801Y-14622031D01*
X9497801Y-14622031D02*
X9507324Y-14612508D01*
X9507324Y-14612508D02*
X9526372Y-14602984D01*
X9678753Y-14783936D02*
X9688277Y-14793460D01*
X9688277Y-14793460D02*
X9678753Y-14802984D01*
X9678753Y-14802984D02*
X9669229Y-14793460D01*
X9669229Y-14793460D02*
X9678753Y-14783936D01*
X9678753Y-14783936D02*
X9678753Y-14802984D01*
X9802563Y-14688698D02*
X9783515Y-14679174D01*
X9783515Y-14679174D02*
X9773991Y-14669650D01*
X9773991Y-14669650D02*
X9764467Y-14650603D01*
X9764467Y-14650603D02*
X9764467Y-14641079D01*
X9764467Y-14641079D02*
X9773991Y-14622031D01*
X9773991Y-14622031D02*
X9783515Y-14612508D01*
X9783515Y-14612508D02*
X9802563Y-14602984D01*
X9802563Y-14602984D02*
X9840658Y-14602984D01*
X9840658Y-14602984D02*
X9859705Y-14612508D01*
X9859705Y-14612508D02*
X9869229Y-14622031D01*
X9869229Y-14622031D02*
X9878753Y-14641079D01*
X9878753Y-14641079D02*
X9878753Y-14650603D01*
X9878753Y-14650603D02*
X9869229Y-14669650D01*
X9869229Y-14669650D02*
X9859705Y-14679174D01*
X9859705Y-14679174D02*
X9840658Y-14688698D01*
X9840658Y-14688698D02*
X9802563Y-14688698D01*
X9802563Y-14688698D02*
X9783515Y-14698222D01*
X9783515Y-14698222D02*
X9773991Y-14707746D01*
X9773991Y-14707746D02*
X9764467Y-14726793D01*
X9764467Y-14726793D02*
X9764467Y-14764888D01*
X9764467Y-14764888D02*
X9773991Y-14783936D01*
X9773991Y-14783936D02*
X9783515Y-14793460D01*
X9783515Y-14793460D02*
X9802563Y-14802984D01*
X9802563Y-14802984D02*
X9840658Y-14802984D01*
X9840658Y-14802984D02*
X9859705Y-14793460D01*
X9859705Y-14793460D02*
X9869229Y-14783936D01*
X9869229Y-14783936D02*
X9878753Y-14764888D01*
X9878753Y-14764888D02*
X9878753Y-14726793D01*
X9878753Y-14726793D02*
X9869229Y-14707746D01*
X9869229Y-14707746D02*
X9859705Y-14698222D01*
X9859705Y-14698222D02*
X9840658Y-14688698D01*
X10002563Y-14602984D02*
X10021610Y-14602984D01*
X10021610Y-14602984D02*
X10040658Y-14612508D01*
X10040658Y-14612508D02*
X10050182Y-14622031D01*
X10050182Y-14622031D02*
X10059705Y-14641079D01*
X10059705Y-14641079D02*
X10069229Y-14679174D01*
X10069229Y-14679174D02*
X10069229Y-14726793D01*
X10069229Y-14726793D02*
X10059705Y-14764888D01*
X10059705Y-14764888D02*
X10050182Y-14783936D01*
X10050182Y-14783936D02*
X10040658Y-14793460D01*
X10040658Y-14793460D02*
X10021610Y-14802984D01*
X10021610Y-14802984D02*
X10002563Y-14802984D01*
X10002563Y-14802984D02*
X9983515Y-14793460D01*
X9983515Y-14793460D02*
X9973991Y-14783936D01*
X9973991Y-14783936D02*
X9964467Y-14764888D01*
X9964467Y-14764888D02*
X9954944Y-14726793D01*
X9954944Y-14726793D02*
X9954944Y-14679174D01*
X9954944Y-14679174D02*
X9964467Y-14641079D01*
X9964467Y-14641079D02*
X9973991Y-14622031D01*
X9973991Y-14622031D02*
X9983515Y-14612508D01*
X9983515Y-14612508D02*
X10002563Y-14602984D01*
X10193039Y-14602984D02*
X10212086Y-14602984D01*
X10212086Y-14602984D02*
X10231134Y-14612508D01*
X10231134Y-14612508D02*
X10240658Y-14622031D01*
X10240658Y-14622031D02*
X10250182Y-14641079D01*
X10250182Y-14641079D02*
X10259705Y-14679174D01*
X10259705Y-14679174D02*
X10259705Y-14726793D01*
X10259705Y-14726793D02*
X10250182Y-14764888D01*
X10250182Y-14764888D02*
X10240658Y-14783936D01*
X10240658Y-14783936D02*
X10231134Y-14793460D01*
X10231134Y-14793460D02*
X10212086Y-14802984D01*
X10212086Y-14802984D02*
X10193039Y-14802984D01*
X10193039Y-14802984D02*
X10173991Y-14793460D01*
X10173991Y-14793460D02*
X10164467Y-14783936D01*
X10164467Y-14783936D02*
X10154944Y-14764888D01*
X10154944Y-14764888D02*
X10145420Y-14726793D01*
X10145420Y-14726793D02*
X10145420Y-14679174D01*
X10145420Y-14679174D02*
X10154944Y-14641079D01*
X10154944Y-14641079D02*
X10164467Y-14622031D01*
X10164467Y-14622031D02*
X10173991Y-14612508D01*
X10173991Y-14612508D02*
X10193039Y-14602984D01*
X10345420Y-14802984D02*
X10345420Y-14669650D01*
X10345420Y-14688698D02*
X10354944Y-14679174D01*
X10354944Y-14679174D02*
X10373991Y-14669650D01*
X10373991Y-14669650D02*
X10402563Y-14669650D01*
X10402563Y-14669650D02*
X10421610Y-14679174D01*
X10421610Y-14679174D02*
X10431134Y-14698222D01*
X10431134Y-14698222D02*
X10431134Y-14802984D01*
X10431134Y-14698222D02*
X10440658Y-14679174D01*
X10440658Y-14679174D02*
X10459705Y-14669650D01*
X10459705Y-14669650D02*
X10488277Y-14669650D01*
X10488277Y-14669650D02*
X10507325Y-14679174D01*
X10507325Y-14679174D02*
X10516848Y-14698222D01*
X10516848Y-14698222D02*
X10516848Y-14802984D01*
X10612086Y-14802984D02*
X10612086Y-14669650D01*
X10612086Y-14688698D02*
X10621610Y-14679174D01*
X10621610Y-14679174D02*
X10640658Y-14669650D01*
X10640658Y-14669650D02*
X10669229Y-14669650D01*
X10669229Y-14669650D02*
X10688277Y-14679174D01*
X10688277Y-14679174D02*
X10697801Y-14698222D01*
X10697801Y-14698222D02*
X10697801Y-14802984D01*
X10697801Y-14698222D02*
X10707325Y-14679174D01*
X10707325Y-14679174D02*
X10726372Y-14669650D01*
X10726372Y-14669650D02*
X10754944Y-14669650D01*
X10754944Y-14669650D02*
X10773991Y-14679174D01*
X10773991Y-14679174D02*
X10783515Y-14698222D01*
X10783515Y-14698222D02*
X10783515Y-14802984D01*
X11173991Y-14593460D02*
X11002563Y-14850603D01*
X11431134Y-14602984D02*
X11450182Y-14602984D01*
X11450182Y-14602984D02*
X11469229Y-14612508D01*
X11469229Y-14612508D02*
X11478753Y-14622031D01*
X11478753Y-14622031D02*
X11488277Y-14641079D01*
X11488277Y-14641079D02*
X11497801Y-14679174D01*
X11497801Y-14679174D02*
X11497801Y-14726793D01*
X11497801Y-14726793D02*
X11488277Y-14764888D01*
X11488277Y-14764888D02*
X11478753Y-14783936D01*
X11478753Y-14783936D02*
X11469229Y-14793460D01*
X11469229Y-14793460D02*
X11450182Y-14802984D01*
X11450182Y-14802984D02*
X11431134Y-14802984D01*
X11431134Y-14802984D02*
X11412086Y-14793460D01*
X11412086Y-14793460D02*
X11402563Y-14783936D01*
X11402563Y-14783936D02*
X11393039Y-14764888D01*
X11393039Y-14764888D02*
X11383515Y-14726793D01*
X11383515Y-14726793D02*
X11383515Y-14679174D01*
X11383515Y-14679174D02*
X11393039Y-14641079D01*
X11393039Y-14641079D02*
X11402563Y-14622031D01*
X11402563Y-14622031D02*
X11412086Y-14612508D01*
X11412086Y-14612508D02*
X11431134Y-14602984D01*
X11583515Y-14783936D02*
X11593039Y-14793460D01*
X11593039Y-14793460D02*
X11583515Y-14802984D01*
X11583515Y-14802984D02*
X11573991Y-14793460D01*
X11573991Y-14793460D02*
X11583515Y-14783936D01*
X11583515Y-14783936D02*
X11583515Y-14802984D01*
X11716848Y-14602984D02*
X11735896Y-14602984D01*
X11735896Y-14602984D02*
X11754944Y-14612508D01*
X11754944Y-14612508D02*
X11764467Y-14622031D01*
X11764467Y-14622031D02*
X11773991Y-14641079D01*
X11773991Y-14641079D02*
X11783515Y-14679174D01*
X11783515Y-14679174D02*
X11783515Y-14726793D01*
X11783515Y-14726793D02*
X11773991Y-14764888D01*
X11773991Y-14764888D02*
X11764467Y-14783936D01*
X11764467Y-14783936D02*
X11754944Y-14793460D01*
X11754944Y-14793460D02*
X11735896Y-14802984D01*
X11735896Y-14802984D02*
X11716848Y-14802984D01*
X11716848Y-14802984D02*
X11697801Y-14793460D01*
X11697801Y-14793460D02*
X11688277Y-14783936D01*
X11688277Y-14783936D02*
X11678753Y-14764888D01*
X11678753Y-14764888D02*
X11669229Y-14726793D01*
X11669229Y-14726793D02*
X11669229Y-14679174D01*
X11669229Y-14679174D02*
X11678753Y-14641079D01*
X11678753Y-14641079D02*
X11688277Y-14622031D01*
X11688277Y-14622031D02*
X11697801Y-14612508D01*
X11697801Y-14612508D02*
X11716848Y-14602984D01*
X11850182Y-14602984D02*
X11973991Y-14602984D01*
X11973991Y-14602984D02*
X11907325Y-14679174D01*
X11907325Y-14679174D02*
X11935896Y-14679174D01*
X11935896Y-14679174D02*
X11954944Y-14688698D01*
X11954944Y-14688698D02*
X11964467Y-14698222D01*
X11964467Y-14698222D02*
X11973991Y-14717269D01*
X11973991Y-14717269D02*
X11973991Y-14764888D01*
X11973991Y-14764888D02*
X11964467Y-14783936D01*
X11964467Y-14783936D02*
X11954944Y-14793460D01*
X11954944Y-14793460D02*
X11935896Y-14802984D01*
X11935896Y-14802984D02*
X11878753Y-14802984D01*
X11878753Y-14802984D02*
X11859706Y-14793460D01*
X11859706Y-14793460D02*
X11850182Y-14783936D01*
X12164467Y-14802984D02*
X12050182Y-14802984D01*
X12107325Y-14802984D02*
X12107325Y-14602984D01*
X12107325Y-14602984D02*
X12088277Y-14631555D01*
X12088277Y-14631555D02*
X12069229Y-14650603D01*
X12069229Y-14650603D02*
X12050182Y-14660127D01*
X12345420Y-14602984D02*
X12250182Y-14602984D01*
X12250182Y-14602984D02*
X12240658Y-14698222D01*
X12240658Y-14698222D02*
X12250182Y-14688698D01*
X12250182Y-14688698D02*
X12269229Y-14679174D01*
X12269229Y-14679174D02*
X12316848Y-14679174D01*
X12316848Y-14679174D02*
X12335896Y-14688698D01*
X12335896Y-14688698D02*
X12345420Y-14698222D01*
X12345420Y-14698222D02*
X12354944Y-14717269D01*
X12354944Y-14717269D02*
X12354944Y-14764888D01*
X12354944Y-14764888D02*
X12345420Y-14783936D01*
X12345420Y-14783936D02*
X12335896Y-14793460D01*
X12335896Y-14793460D02*
X12316848Y-14802984D01*
X12316848Y-14802984D02*
X12269229Y-14802984D01*
X12269229Y-14802984D02*
X12250182Y-14793460D01*
X12250182Y-14793460D02*
X12240658Y-14783936D01*
X12431134Y-14602984D02*
X12431134Y-14641079D01*
X12507325Y-14602984D02*
X12507325Y-14641079D01*
X12802563Y-14879174D02*
X12793039Y-14869650D01*
X12793039Y-14869650D02*
X12773991Y-14841079D01*
X12773991Y-14841079D02*
X12764468Y-14822031D01*
X12764468Y-14822031D02*
X12754944Y-14793460D01*
X12754944Y-14793460D02*
X12745420Y-14745841D01*
X12745420Y-14745841D02*
X12745420Y-14707746D01*
X12745420Y-14707746D02*
X12754944Y-14660127D01*
X12754944Y-14660127D02*
X12764468Y-14631555D01*
X12764468Y-14631555D02*
X12773991Y-14612508D01*
X12773991Y-14612508D02*
X12793039Y-14583936D01*
X12793039Y-14583936D02*
X12802563Y-14574412D01*
X12983515Y-14802984D02*
X12869229Y-14802984D01*
X12926372Y-14802984D02*
X12926372Y-14602984D01*
X12926372Y-14602984D02*
X12907325Y-14631555D01*
X12907325Y-14631555D02*
X12888277Y-14650603D01*
X12888277Y-14650603D02*
X12869229Y-14660127D01*
X13107325Y-14602984D02*
X13126372Y-14602984D01*
X13126372Y-14602984D02*
X13145420Y-14612508D01*
X13145420Y-14612508D02*
X13154944Y-14622031D01*
X13154944Y-14622031D02*
X13164468Y-14641079D01*
X13164468Y-14641079D02*
X13173991Y-14679174D01*
X13173991Y-14679174D02*
X13173991Y-14726793D01*
X13173991Y-14726793D02*
X13164468Y-14764888D01*
X13164468Y-14764888D02*
X13154944Y-14783936D01*
X13154944Y-14783936D02*
X13145420Y-14793460D01*
X13145420Y-14793460D02*
X13126372Y-14802984D01*
X13126372Y-14802984D02*
X13107325Y-14802984D01*
X13107325Y-14802984D02*
X13088277Y-14793460D01*
X13088277Y-14793460D02*
X13078753Y-14783936D01*
X13078753Y-14783936D02*
X13069229Y-14764888D01*
X13069229Y-14764888D02*
X13059706Y-14726793D01*
X13059706Y-14726793D02*
X13059706Y-14679174D01*
X13059706Y-14679174D02*
X13069229Y-14641079D01*
X13069229Y-14641079D02*
X13078753Y-14622031D01*
X13078753Y-14622031D02*
X13088277Y-14612508D01*
X13088277Y-14612508D02*
X13107325Y-14602984D01*
X13412087Y-14802984D02*
X13412087Y-14602984D01*
X13497801Y-14802984D02*
X13497801Y-14698222D01*
X13497801Y-14698222D02*
X13488277Y-14679174D01*
X13488277Y-14679174D02*
X13469230Y-14669650D01*
X13469230Y-14669650D02*
X13440658Y-14669650D01*
X13440658Y-14669650D02*
X13421610Y-14679174D01*
X13421610Y-14679174D02*
X13412087Y-14688698D01*
X13621610Y-14802984D02*
X13602563Y-14793460D01*
X13602563Y-14793460D02*
X13593039Y-14783936D01*
X13593039Y-14783936D02*
X13583515Y-14764888D01*
X13583515Y-14764888D02*
X13583515Y-14707746D01*
X13583515Y-14707746D02*
X13593039Y-14688698D01*
X13593039Y-14688698D02*
X13602563Y-14679174D01*
X13602563Y-14679174D02*
X13621610Y-14669650D01*
X13621610Y-14669650D02*
X13650182Y-14669650D01*
X13650182Y-14669650D02*
X13669230Y-14679174D01*
X13669230Y-14679174D02*
X13678753Y-14688698D01*
X13678753Y-14688698D02*
X13688277Y-14707746D01*
X13688277Y-14707746D02*
X13688277Y-14764888D01*
X13688277Y-14764888D02*
X13678753Y-14783936D01*
X13678753Y-14783936D02*
X13669230Y-14793460D01*
X13669230Y-14793460D02*
X13650182Y-14802984D01*
X13650182Y-14802984D02*
X13621610Y-14802984D01*
X13802563Y-14802984D02*
X13783515Y-14793460D01*
X13783515Y-14793460D02*
X13773991Y-14774412D01*
X13773991Y-14774412D02*
X13773991Y-14602984D01*
X13954944Y-14793460D02*
X13935896Y-14802984D01*
X13935896Y-14802984D02*
X13897801Y-14802984D01*
X13897801Y-14802984D02*
X13878753Y-14793460D01*
X13878753Y-14793460D02*
X13869230Y-14774412D01*
X13869230Y-14774412D02*
X13869230Y-14698222D01*
X13869230Y-14698222D02*
X13878753Y-14679174D01*
X13878753Y-14679174D02*
X13897801Y-14669650D01*
X13897801Y-14669650D02*
X13935896Y-14669650D01*
X13935896Y-14669650D02*
X13954944Y-14679174D01*
X13954944Y-14679174D02*
X13964468Y-14698222D01*
X13964468Y-14698222D02*
X13964468Y-14717269D01*
X13964468Y-14717269D02*
X13869230Y-14736317D01*
X14040658Y-14793460D02*
X14059706Y-14802984D01*
X14059706Y-14802984D02*
X14097801Y-14802984D01*
X14097801Y-14802984D02*
X14116849Y-14793460D01*
X14116849Y-14793460D02*
X14126372Y-14774412D01*
X14126372Y-14774412D02*
X14126372Y-14764888D01*
X14126372Y-14764888D02*
X14116849Y-14745841D01*
X14116849Y-14745841D02*
X14097801Y-14736317D01*
X14097801Y-14736317D02*
X14069230Y-14736317D01*
X14069230Y-14736317D02*
X14050182Y-14726793D01*
X14050182Y-14726793D02*
X14040658Y-14707746D01*
X14040658Y-14707746D02*
X14040658Y-14698222D01*
X14040658Y-14698222D02*
X14050182Y-14679174D01*
X14050182Y-14679174D02*
X14069230Y-14669650D01*
X14069230Y-14669650D02*
X14097801Y-14669650D01*
X14097801Y-14669650D02*
X14116849Y-14679174D01*
X14193039Y-14879174D02*
X14202563Y-14869650D01*
X14202563Y-14869650D02*
X14221611Y-14841079D01*
X14221611Y-14841079D02*
X14231134Y-14822031D01*
X14231134Y-14822031D02*
X14240658Y-14793460D01*
X14240658Y-14793460D02*
X14250182Y-14745841D01*
X14250182Y-14745841D02*
X14250182Y-14707746D01*
X14250182Y-14707746D02*
X14240658Y-14660127D01*
X14240658Y-14660127D02*
X14231134Y-14631555D01*
X14231134Y-14631555D02*
X14221611Y-14612508D01*
X14221611Y-14612508D02*
X14202563Y-14583936D01*
X14202563Y-14583936D02*
X14193039Y-14574412D01*
X9127500Y-14875500D02*
X9127500Y-15075500D01*
X9027500Y-14975500D02*
X9227500Y-14975500D01*
X9478753Y-14886031D02*
X9488277Y-14876508D01*
X9488277Y-14876508D02*
X9507324Y-14866984D01*
X9507324Y-14866984D02*
X9554944Y-14866984D01*
X9554944Y-14866984D02*
X9573991Y-14876508D01*
X9573991Y-14876508D02*
X9583515Y-14886031D01*
X9583515Y-14886031D02*
X9593039Y-14905079D01*
X9593039Y-14905079D02*
X9593039Y-14924127D01*
X9593039Y-14924127D02*
X9583515Y-14952698D01*
X9583515Y-14952698D02*
X9469229Y-15066984D01*
X9469229Y-15066984D02*
X9593039Y-15066984D01*
X9678753Y-15047936D02*
X9688277Y-15057460D01*
X9688277Y-15057460D02*
X9678753Y-15066984D01*
X9678753Y-15066984D02*
X9669229Y-15057460D01*
X9669229Y-15057460D02*
X9678753Y-15047936D01*
X9678753Y-15047936D02*
X9678753Y-15066984D01*
X9812086Y-14866984D02*
X9831134Y-14866984D01*
X9831134Y-14866984D02*
X9850182Y-14876508D01*
X9850182Y-14876508D02*
X9859705Y-14886031D01*
X9859705Y-14886031D02*
X9869229Y-14905079D01*
X9869229Y-14905079D02*
X9878753Y-14943174D01*
X9878753Y-14943174D02*
X9878753Y-14990793D01*
X9878753Y-14990793D02*
X9869229Y-15028888D01*
X9869229Y-15028888D02*
X9859705Y-15047936D01*
X9859705Y-15047936D02*
X9850182Y-15057460D01*
X9850182Y-15057460D02*
X9831134Y-15066984D01*
X9831134Y-15066984D02*
X9812086Y-15066984D01*
X9812086Y-15066984D02*
X9793039Y-15057460D01*
X9793039Y-15057460D02*
X9783515Y-15047936D01*
X9783515Y-15047936D02*
X9773991Y-15028888D01*
X9773991Y-15028888D02*
X9764467Y-14990793D01*
X9764467Y-14990793D02*
X9764467Y-14943174D01*
X9764467Y-14943174D02*
X9773991Y-14905079D01*
X9773991Y-14905079D02*
X9783515Y-14886031D01*
X9783515Y-14886031D02*
X9793039Y-14876508D01*
X9793039Y-14876508D02*
X9812086Y-14866984D01*
X10002563Y-14866984D02*
X10021610Y-14866984D01*
X10021610Y-14866984D02*
X10040658Y-14876508D01*
X10040658Y-14876508D02*
X10050182Y-14886031D01*
X10050182Y-14886031D02*
X10059705Y-14905079D01*
X10059705Y-14905079D02*
X10069229Y-14943174D01*
X10069229Y-14943174D02*
X10069229Y-14990793D01*
X10069229Y-14990793D02*
X10059705Y-15028888D01*
X10059705Y-15028888D02*
X10050182Y-15047936D01*
X10050182Y-15047936D02*
X10040658Y-15057460D01*
X10040658Y-15057460D02*
X10021610Y-15066984D01*
X10021610Y-15066984D02*
X10002563Y-15066984D01*
X10002563Y-15066984D02*
X9983515Y-15057460D01*
X9983515Y-15057460D02*
X9973991Y-15047936D01*
X9973991Y-15047936D02*
X9964467Y-15028888D01*
X9964467Y-15028888D02*
X9954944Y-14990793D01*
X9954944Y-14990793D02*
X9954944Y-14943174D01*
X9954944Y-14943174D02*
X9964467Y-14905079D01*
X9964467Y-14905079D02*
X9973991Y-14886031D01*
X9973991Y-14886031D02*
X9983515Y-14876508D01*
X9983515Y-14876508D02*
X10002563Y-14866984D01*
X10193039Y-14866984D02*
X10212086Y-14866984D01*
X10212086Y-14866984D02*
X10231134Y-14876508D01*
X10231134Y-14876508D02*
X10240658Y-14886031D01*
X10240658Y-14886031D02*
X10250182Y-14905079D01*
X10250182Y-14905079D02*
X10259705Y-14943174D01*
X10259705Y-14943174D02*
X10259705Y-14990793D01*
X10259705Y-14990793D02*
X10250182Y-15028888D01*
X10250182Y-15028888D02*
X10240658Y-15047936D01*
X10240658Y-15047936D02*
X10231134Y-15057460D01*
X10231134Y-15057460D02*
X10212086Y-15066984D01*
X10212086Y-15066984D02*
X10193039Y-15066984D01*
X10193039Y-15066984D02*
X10173991Y-15057460D01*
X10173991Y-15057460D02*
X10164467Y-15047936D01*
X10164467Y-15047936D02*
X10154944Y-15028888D01*
X10154944Y-15028888D02*
X10145420Y-14990793D01*
X10145420Y-14990793D02*
X10145420Y-14943174D01*
X10145420Y-14943174D02*
X10154944Y-14905079D01*
X10154944Y-14905079D02*
X10164467Y-14886031D01*
X10164467Y-14886031D02*
X10173991Y-14876508D01*
X10173991Y-14876508D02*
X10193039Y-14866984D01*
X10345420Y-15066984D02*
X10345420Y-14933650D01*
X10345420Y-14952698D02*
X10354944Y-14943174D01*
X10354944Y-14943174D02*
X10373991Y-14933650D01*
X10373991Y-14933650D02*
X10402563Y-14933650D01*
X10402563Y-14933650D02*
X10421610Y-14943174D01*
X10421610Y-14943174D02*
X10431134Y-14962222D01*
X10431134Y-14962222D02*
X10431134Y-15066984D01*
X10431134Y-14962222D02*
X10440658Y-14943174D01*
X10440658Y-14943174D02*
X10459705Y-14933650D01*
X10459705Y-14933650D02*
X10488277Y-14933650D01*
X10488277Y-14933650D02*
X10507325Y-14943174D01*
X10507325Y-14943174D02*
X10516848Y-14962222D01*
X10516848Y-14962222D02*
X10516848Y-15066984D01*
X10612086Y-15066984D02*
X10612086Y-14933650D01*
X10612086Y-14952698D02*
X10621610Y-14943174D01*
X10621610Y-14943174D02*
X10640658Y-14933650D01*
X10640658Y-14933650D02*
X10669229Y-14933650D01*
X10669229Y-14933650D02*
X10688277Y-14943174D01*
X10688277Y-14943174D02*
X10697801Y-14962222D01*
X10697801Y-14962222D02*
X10697801Y-15066984D01*
X10697801Y-14962222D02*
X10707325Y-14943174D01*
X10707325Y-14943174D02*
X10726372Y-14933650D01*
X10726372Y-14933650D02*
X10754944Y-14933650D01*
X10754944Y-14933650D02*
X10773991Y-14943174D01*
X10773991Y-14943174D02*
X10783515Y-14962222D01*
X10783515Y-14962222D02*
X10783515Y-15066984D01*
X11173991Y-14857460D02*
X11002563Y-15114603D01*
X11431134Y-14866984D02*
X11450182Y-14866984D01*
X11450182Y-14866984D02*
X11469229Y-14876508D01*
X11469229Y-14876508D02*
X11478753Y-14886031D01*
X11478753Y-14886031D02*
X11488277Y-14905079D01*
X11488277Y-14905079D02*
X11497801Y-14943174D01*
X11497801Y-14943174D02*
X11497801Y-14990793D01*
X11497801Y-14990793D02*
X11488277Y-15028888D01*
X11488277Y-15028888D02*
X11478753Y-15047936D01*
X11478753Y-15047936D02*
X11469229Y-15057460D01*
X11469229Y-15057460D02*
X11450182Y-15066984D01*
X11450182Y-15066984D02*
X11431134Y-15066984D01*
X11431134Y-15066984D02*
X11412086Y-15057460D01*
X11412086Y-15057460D02*
X11402563Y-15047936D01*
X11402563Y-15047936D02*
X11393039Y-15028888D01*
X11393039Y-15028888D02*
X11383515Y-14990793D01*
X11383515Y-14990793D02*
X11383515Y-14943174D01*
X11383515Y-14943174D02*
X11393039Y-14905079D01*
X11393039Y-14905079D02*
X11402563Y-14886031D01*
X11402563Y-14886031D02*
X11412086Y-14876508D01*
X11412086Y-14876508D02*
X11431134Y-14866984D01*
X11583515Y-15047936D02*
X11593039Y-15057460D01*
X11593039Y-15057460D02*
X11583515Y-15066984D01*
X11583515Y-15066984D02*
X11573991Y-15057460D01*
X11573991Y-15057460D02*
X11583515Y-15047936D01*
X11583515Y-15047936D02*
X11583515Y-15066984D01*
X11716848Y-14866984D02*
X11735896Y-14866984D01*
X11735896Y-14866984D02*
X11754944Y-14876508D01*
X11754944Y-14876508D02*
X11764467Y-14886031D01*
X11764467Y-14886031D02*
X11773991Y-14905079D01*
X11773991Y-14905079D02*
X11783515Y-14943174D01*
X11783515Y-14943174D02*
X11783515Y-14990793D01*
X11783515Y-14990793D02*
X11773991Y-15028888D01*
X11773991Y-15028888D02*
X11764467Y-15047936D01*
X11764467Y-15047936D02*
X11754944Y-15057460D01*
X11754944Y-15057460D02*
X11735896Y-15066984D01*
X11735896Y-15066984D02*
X11716848Y-15066984D01*
X11716848Y-15066984D02*
X11697801Y-15057460D01*
X11697801Y-15057460D02*
X11688277Y-15047936D01*
X11688277Y-15047936D02*
X11678753Y-15028888D01*
X11678753Y-15028888D02*
X11669229Y-14990793D01*
X11669229Y-14990793D02*
X11669229Y-14943174D01*
X11669229Y-14943174D02*
X11678753Y-14905079D01*
X11678753Y-14905079D02*
X11688277Y-14886031D01*
X11688277Y-14886031D02*
X11697801Y-14876508D01*
X11697801Y-14876508D02*
X11716848Y-14866984D01*
X11850182Y-14866984D02*
X11983515Y-14866984D01*
X11983515Y-14866984D02*
X11897801Y-15066984D01*
X12088277Y-14952698D02*
X12069229Y-14943174D01*
X12069229Y-14943174D02*
X12059706Y-14933650D01*
X12059706Y-14933650D02*
X12050182Y-14914603D01*
X12050182Y-14914603D02*
X12050182Y-14905079D01*
X12050182Y-14905079D02*
X12059706Y-14886031D01*
X12059706Y-14886031D02*
X12069229Y-14876508D01*
X12069229Y-14876508D02*
X12088277Y-14866984D01*
X12088277Y-14866984D02*
X12126372Y-14866984D01*
X12126372Y-14866984D02*
X12145420Y-14876508D01*
X12145420Y-14876508D02*
X12154944Y-14886031D01*
X12154944Y-14886031D02*
X12164467Y-14905079D01*
X12164467Y-14905079D02*
X12164467Y-14914603D01*
X12164467Y-14914603D02*
X12154944Y-14933650D01*
X12154944Y-14933650D02*
X12145420Y-14943174D01*
X12145420Y-14943174D02*
X12126372Y-14952698D01*
X12126372Y-14952698D02*
X12088277Y-14952698D01*
X12088277Y-14952698D02*
X12069229Y-14962222D01*
X12069229Y-14962222D02*
X12059706Y-14971746D01*
X12059706Y-14971746D02*
X12050182Y-14990793D01*
X12050182Y-14990793D02*
X12050182Y-15028888D01*
X12050182Y-15028888D02*
X12059706Y-15047936D01*
X12059706Y-15047936D02*
X12069229Y-15057460D01*
X12069229Y-15057460D02*
X12088277Y-15066984D01*
X12088277Y-15066984D02*
X12126372Y-15066984D01*
X12126372Y-15066984D02*
X12145420Y-15057460D01*
X12145420Y-15057460D02*
X12154944Y-15047936D01*
X12154944Y-15047936D02*
X12164467Y-15028888D01*
X12164467Y-15028888D02*
X12164467Y-14990793D01*
X12164467Y-14990793D02*
X12154944Y-14971746D01*
X12154944Y-14971746D02*
X12145420Y-14962222D01*
X12145420Y-14962222D02*
X12126372Y-14952698D01*
X12231134Y-14866984D02*
X12364467Y-14866984D01*
X12364467Y-14866984D02*
X12278753Y-15066984D01*
X12431134Y-14866984D02*
X12431134Y-14905079D01*
X12507325Y-14866984D02*
X12507325Y-14905079D01*
X12802563Y-15143174D02*
X12793039Y-15133650D01*
X12793039Y-15133650D02*
X12773991Y-15105079D01*
X12773991Y-15105079D02*
X12764468Y-15086031D01*
X12764468Y-15086031D02*
X12754944Y-15057460D01*
X12754944Y-15057460D02*
X12745420Y-15009841D01*
X12745420Y-15009841D02*
X12745420Y-14971746D01*
X12745420Y-14971746D02*
X12754944Y-14924127D01*
X12754944Y-14924127D02*
X12764468Y-14895555D01*
X12764468Y-14895555D02*
X12773991Y-14876508D01*
X12773991Y-14876508D02*
X12793039Y-14847936D01*
X12793039Y-14847936D02*
X12802563Y-14838412D01*
X12983515Y-15066984D02*
X12869229Y-15066984D01*
X12926372Y-15066984D02*
X12926372Y-14866984D01*
X12926372Y-14866984D02*
X12907325Y-14895555D01*
X12907325Y-14895555D02*
X12888277Y-14914603D01*
X12888277Y-14914603D02*
X12869229Y-14924127D01*
X13107325Y-14866984D02*
X13126372Y-14866984D01*
X13126372Y-14866984D02*
X13145420Y-14876508D01*
X13145420Y-14876508D02*
X13154944Y-14886031D01*
X13154944Y-14886031D02*
X13164468Y-14905079D01*
X13164468Y-14905079D02*
X13173991Y-14943174D01*
X13173991Y-14943174D02*
X13173991Y-14990793D01*
X13173991Y-14990793D02*
X13164468Y-15028888D01*
X13164468Y-15028888D02*
X13154944Y-15047936D01*
X13154944Y-15047936D02*
X13145420Y-15057460D01*
X13145420Y-15057460D02*
X13126372Y-15066984D01*
X13126372Y-15066984D02*
X13107325Y-15066984D01*
X13107325Y-15066984D02*
X13088277Y-15057460D01*
X13088277Y-15057460D02*
X13078753Y-15047936D01*
X13078753Y-15047936D02*
X13069229Y-15028888D01*
X13069229Y-15028888D02*
X13059706Y-14990793D01*
X13059706Y-14990793D02*
X13059706Y-14943174D01*
X13059706Y-14943174D02*
X13069229Y-14905079D01*
X13069229Y-14905079D02*
X13078753Y-14886031D01*
X13078753Y-14886031D02*
X13088277Y-14876508D01*
X13088277Y-14876508D02*
X13107325Y-14866984D01*
X13412087Y-15066984D02*
X13412087Y-14866984D01*
X13497801Y-15066984D02*
X13497801Y-14962222D01*
X13497801Y-14962222D02*
X13488277Y-14943174D01*
X13488277Y-14943174D02*
X13469230Y-14933650D01*
X13469230Y-14933650D02*
X13440658Y-14933650D01*
X13440658Y-14933650D02*
X13421610Y-14943174D01*
X13421610Y-14943174D02*
X13412087Y-14952698D01*
X13621610Y-15066984D02*
X13602563Y-15057460D01*
X13602563Y-15057460D02*
X13593039Y-15047936D01*
X13593039Y-15047936D02*
X13583515Y-15028888D01*
X13583515Y-15028888D02*
X13583515Y-14971746D01*
X13583515Y-14971746D02*
X13593039Y-14952698D01*
X13593039Y-14952698D02*
X13602563Y-14943174D01*
X13602563Y-14943174D02*
X13621610Y-14933650D01*
X13621610Y-14933650D02*
X13650182Y-14933650D01*
X13650182Y-14933650D02*
X13669230Y-14943174D01*
X13669230Y-14943174D02*
X13678753Y-14952698D01*
X13678753Y-14952698D02*
X13688277Y-14971746D01*
X13688277Y-14971746D02*
X13688277Y-15028888D01*
X13688277Y-15028888D02*
X13678753Y-15047936D01*
X13678753Y-15047936D02*
X13669230Y-15057460D01*
X13669230Y-15057460D02*
X13650182Y-15066984D01*
X13650182Y-15066984D02*
X13621610Y-15066984D01*
X13802563Y-15066984D02*
X13783515Y-15057460D01*
X13783515Y-15057460D02*
X13773991Y-15038412D01*
X13773991Y-15038412D02*
X13773991Y-14866984D01*
X13954944Y-15057460D02*
X13935896Y-15066984D01*
X13935896Y-15066984D02*
X13897801Y-15066984D01*
X13897801Y-15066984D02*
X13878753Y-15057460D01*
X13878753Y-15057460D02*
X13869230Y-15038412D01*
X13869230Y-15038412D02*
X13869230Y-14962222D01*
X13869230Y-14962222D02*
X13878753Y-14943174D01*
X13878753Y-14943174D02*
X13897801Y-14933650D01*
X13897801Y-14933650D02*
X13935896Y-14933650D01*
X13935896Y-14933650D02*
X13954944Y-14943174D01*
X13954944Y-14943174D02*
X13964468Y-14962222D01*
X13964468Y-14962222D02*
X13964468Y-14981269D01*
X13964468Y-14981269D02*
X13869230Y-15000317D01*
X14040658Y-15057460D02*
X14059706Y-15066984D01*
X14059706Y-15066984D02*
X14097801Y-15066984D01*
X14097801Y-15066984D02*
X14116849Y-15057460D01*
X14116849Y-15057460D02*
X14126372Y-15038412D01*
X14126372Y-15038412D02*
X14126372Y-15028888D01*
X14126372Y-15028888D02*
X14116849Y-15009841D01*
X14116849Y-15009841D02*
X14097801Y-15000317D01*
X14097801Y-15000317D02*
X14069230Y-15000317D01*
X14069230Y-15000317D02*
X14050182Y-14990793D01*
X14050182Y-14990793D02*
X14040658Y-14971746D01*
X14040658Y-14971746D02*
X14040658Y-14962222D01*
X14040658Y-14962222D02*
X14050182Y-14943174D01*
X14050182Y-14943174D02*
X14069230Y-14933650D01*
X14069230Y-14933650D02*
X14097801Y-14933650D01*
X14097801Y-14933650D02*
X14116849Y-14943174D01*
X14193039Y-15143174D02*
X14202563Y-15133650D01*
X14202563Y-15133650D02*
X14221611Y-15105079D01*
X14221611Y-15105079D02*
X14231134Y-15086031D01*
X14231134Y-15086031D02*
X14240658Y-15057460D01*
X14240658Y-15057460D02*
X14250182Y-15009841D01*
X14250182Y-15009841D02*
X14250182Y-14971746D01*
X14250182Y-14971746D02*
X14240658Y-14924127D01*
X14240658Y-14924127D02*
X14231134Y-14895555D01*
X14231134Y-14895555D02*
X14221611Y-14876508D01*
X14221611Y-14876508D02*
X14202563Y-14847936D01*
X14202563Y-14847936D02*
X14193039Y-14838412D01*
M02*
