%TF.GenerationSoftware,KiCad,Pcbnew,7.0.5-7.0.5~ubuntu22.04.1*%
%TF.CreationDate,2025-02-26T12:57:44+00:00*%
%TF.ProjectId,PBA0019-T50-6-trap,50424130-3031-4392-9d54-35302d362d74,1.0*%
%TF.SameCoordinates,Original*%
%TF.FileFunction,Profile,NP*%
%FSLAX46Y46*%
G04 Gerber Fmt 4.6, Leading zero omitted, Abs format (unit mm)*
G04 Created by KiCad (PCBNEW 7.0.5-7.0.5~ubuntu22.04.1) date 2025-02-26 12:57:44*
%MOMM*%
%LPD*%
G01*
G04 APERTURE LIST*
%TA.AperFunction,Profile*%
%ADD10C,0.050000*%
%TD*%
G04 APERTURE END LIST*
D10*
X92300000Y-138050000D02*
X92300000Y-38050000D01*
X192300000Y-138050000D02*
X192300000Y-38050000D01*
X92300000Y-38050000D02*
X192300000Y-38050000D01*
X192300000Y-138050000D02*
X92300000Y-138050000D01*
X177964662Y-70475004D02*
G75*
G03*
X190875000Y-57725000I159338J12750004D01*
G01*
X162225000Y-39734342D02*
X178025000Y-39734342D01*
X162215658Y-70475000D02*
X177964662Y-70475000D01*
X190025000Y-52575000D02*
G75*
G03*
X178025000Y-40575000I-12000000J0D01*
G01*
X190865658Y-52575000D02*
G75*
G03*
X178025000Y-39734342I-12840658J0D01*
G01*
X156450000Y-47075000D02*
G75*
G03*
X156450000Y-47075000I-1000000J0D01*
G01*
X153700000Y-55150000D02*
G75*
G03*
X153700000Y-55150000I-1000000J0D01*
G01*
X186050000Y-47100000D02*
G75*
G03*
X186050000Y-47100000I-1000000J0D01*
G01*
X190865658Y-54150000D02*
X190025000Y-54150000D01*
X190498607Y-55750000D02*
G75*
G03*
X190498607Y-55750000I-223607J0D01*
G01*
X150223607Y-55098606D02*
G75*
G03*
X150223607Y-55098606I-223607J0D01*
G01*
X150223607Y-55725000D02*
G75*
G03*
X150223607Y-55725000I-223607J0D01*
G01*
X150225000Y-52575000D02*
X150225000Y-54150000D01*
X190875000Y-56075000D02*
X190875000Y-57725000D01*
X186050000Y-63075000D02*
G75*
G03*
X186050000Y-63075000I-1000000J0D01*
G01*
X150225000Y-57575000D02*
G75*
G03*
X162225000Y-69575000I12000000J0D01*
G01*
X178025000Y-69575000D02*
G75*
G03*
X190025000Y-57575000I0J12000000D01*
G01*
X162225000Y-39734342D02*
G75*
G03*
X149384342Y-52575000I0J-12840658D01*
G01*
X150223607Y-54475000D02*
G75*
G03*
X150223607Y-54475000I-223607J0D01*
G01*
X190025000Y-52575000D02*
X190025000Y-54150000D01*
X156450000Y-63075000D02*
G75*
G03*
X156450000Y-63075000I-1000000J0D01*
G01*
X162225000Y-40575000D02*
G75*
G03*
X150225000Y-52575000I0J-12000000D01*
G01*
X178025000Y-40575000D02*
X162225000Y-40575000D01*
X173225000Y-55075000D02*
G75*
G03*
X173225000Y-55075000I-3000210J0D01*
G01*
X178025000Y-69575000D02*
X162225000Y-69575000D01*
X150225000Y-56075000D02*
X150225000Y-57575000D01*
X149375000Y-57634342D02*
G75*
G03*
X162215658Y-70475000I12840660J2D01*
G01*
X149375000Y-56075000D02*
X150225000Y-56075000D01*
X149384342Y-54150000D02*
X150225000Y-54150000D01*
X190025000Y-56075000D02*
X190025000Y-57575000D01*
X190498607Y-54500000D02*
G75*
G03*
X190498607Y-54500000I-223607J0D01*
G01*
X188725000Y-55100000D02*
G75*
G03*
X188725000Y-55100000I-1000000J0D01*
G01*
X149375000Y-57634342D02*
X149375000Y-56075000D01*
X149384342Y-54150000D02*
X149384342Y-52575000D01*
X190865658Y-52575000D02*
X190865658Y-54150000D01*
X190498607Y-55126394D02*
G75*
G03*
X190498607Y-55126394I-223607J0D01*
G01*
X190875000Y-56075000D02*
X190025000Y-56075000D01*
X150223607Y-88098606D02*
G75*
G03*
X150223607Y-88098606I-223607J0D01*
G01*
X150223607Y-88725000D02*
G75*
G03*
X150223607Y-88725000I-223607J0D01*
G01*
X150225000Y-85575000D02*
X150225000Y-87150000D01*
X190498607Y-88750000D02*
G75*
G03*
X190498607Y-88750000I-223607J0D01*
G01*
X190865658Y-87150000D02*
X190025000Y-87150000D01*
X186050000Y-80100000D02*
G75*
G03*
X186050000Y-80100000I-1000000J0D01*
G01*
X153700000Y-88150000D02*
G75*
G03*
X153700000Y-88150000I-1000000J0D01*
G01*
X156450000Y-80075000D02*
G75*
G03*
X156450000Y-80075000I-1000000J0D01*
G01*
X190865658Y-85575000D02*
G75*
G03*
X178025000Y-72734342I-12840658J0D01*
G01*
X190025000Y-85575000D02*
G75*
G03*
X178025000Y-73575000I-12000000J0D01*
G01*
X162215658Y-103475000D02*
X177964662Y-103475000D01*
X162225000Y-72734342D02*
X178025000Y-72734342D01*
X177964662Y-103475004D02*
G75*
G03*
X190875000Y-90725000I159338J12750004D01*
G01*
X190875000Y-89075000D02*
X190025000Y-89075000D01*
X190498607Y-88126394D02*
G75*
G03*
X190498607Y-88126394I-223607J0D01*
G01*
X190865658Y-85575000D02*
X190865658Y-87150000D01*
X149384342Y-87150000D02*
X149384342Y-85575000D01*
X149375000Y-90634342D02*
X149375000Y-89075000D01*
X188725000Y-88100000D02*
G75*
G03*
X188725000Y-88100000I-1000000J0D01*
G01*
X190498607Y-87500000D02*
G75*
G03*
X190498607Y-87500000I-223607J0D01*
G01*
X190025000Y-89075000D02*
X190025000Y-90575000D01*
X149384342Y-87150000D02*
X150225000Y-87150000D01*
X149375000Y-89075000D02*
X150225000Y-89075000D01*
X149375000Y-90634342D02*
G75*
G03*
X162215658Y-103475000I12840660J2D01*
G01*
X150225000Y-89075000D02*
X150225000Y-90575000D01*
X178025000Y-102575000D02*
X162225000Y-102575000D01*
X173225000Y-88075000D02*
G75*
G03*
X173225000Y-88075000I-3000210J0D01*
G01*
X178025000Y-73575000D02*
X162225000Y-73575000D01*
X162225000Y-73575000D02*
G75*
G03*
X150225000Y-85575000I0J-12000000D01*
G01*
X156450000Y-96075000D02*
G75*
G03*
X156450000Y-96075000I-1000000J0D01*
G01*
X190025000Y-85575000D02*
X190025000Y-87150000D01*
X150223607Y-87475000D02*
G75*
G03*
X150223607Y-87475000I-223607J0D01*
G01*
X162225000Y-72734342D02*
G75*
G03*
X149384342Y-85575000I0J-12840658D01*
G01*
X178025000Y-102575000D02*
G75*
G03*
X190025000Y-90575000I0J12000000D01*
G01*
X150225000Y-90575000D02*
G75*
G03*
X162225000Y-102575000I12000000J0D01*
G01*
X186050000Y-96075000D02*
G75*
G03*
X186050000Y-96075000I-1000000J0D01*
G01*
X190875000Y-89075000D02*
X190875000Y-90725000D01*
X190875000Y-122075000D02*
X190875000Y-123725000D01*
X186050000Y-129075000D02*
G75*
G03*
X186050000Y-129075000I-1000000J0D01*
G01*
X150225000Y-123575000D02*
G75*
G03*
X162225000Y-135575000I12000000J0D01*
G01*
X178025000Y-135575000D02*
G75*
G03*
X190025000Y-123575000I0J12000000D01*
G01*
X162225000Y-105734342D02*
G75*
G03*
X149384342Y-118575000I0J-12840658D01*
G01*
X150223607Y-120475000D02*
G75*
G03*
X150223607Y-120475000I-223607J0D01*
G01*
X190025000Y-118575000D02*
X190025000Y-120150000D01*
X156450000Y-129075000D02*
G75*
G03*
X156450000Y-129075000I-1000000J0D01*
G01*
X162225000Y-106575000D02*
G75*
G03*
X150225000Y-118575000I0J-12000000D01*
G01*
X178025000Y-106575000D02*
X162225000Y-106575000D01*
X173225000Y-121075000D02*
G75*
G03*
X173225000Y-121075000I-3000210J0D01*
G01*
X178025000Y-135575000D02*
X162225000Y-135575000D01*
X150225000Y-122075000D02*
X150225000Y-123575000D01*
X149375000Y-123634342D02*
G75*
G03*
X162215658Y-136475000I12840660J2D01*
G01*
X149375000Y-122075000D02*
X150225000Y-122075000D01*
X149384342Y-120150000D02*
X150225000Y-120150000D01*
X190025000Y-122075000D02*
X190025000Y-123575000D01*
X190498607Y-120500000D02*
G75*
G03*
X190498607Y-120500000I-223607J0D01*
G01*
X188725000Y-121100000D02*
G75*
G03*
X188725000Y-121100000I-1000000J0D01*
G01*
X149375000Y-123634342D02*
X149375000Y-122075000D01*
X149384342Y-120150000D02*
X149384342Y-118575000D01*
X190865658Y-118575000D02*
X190865658Y-120150000D01*
X190498607Y-121126394D02*
G75*
G03*
X190498607Y-121126394I-223607J0D01*
G01*
X190875000Y-122075000D02*
X190025000Y-122075000D01*
X177964662Y-136475004D02*
G75*
G03*
X190875000Y-123725000I159338J12750004D01*
G01*
X162225000Y-105734342D02*
X178025000Y-105734342D01*
X162215658Y-136475000D02*
X177964662Y-136475000D01*
X190025000Y-118575000D02*
G75*
G03*
X178025000Y-106575000I-12000000J0D01*
G01*
X190865658Y-118575000D02*
G75*
G03*
X178025000Y-105734342I-12840658J0D01*
G01*
X156450000Y-113075000D02*
G75*
G03*
X156450000Y-113075000I-1000000J0D01*
G01*
X153700000Y-121150000D02*
G75*
G03*
X153700000Y-121150000I-1000000J0D01*
G01*
X186050000Y-113100000D02*
G75*
G03*
X186050000Y-113100000I-1000000J0D01*
G01*
X190865658Y-120150000D02*
X190025000Y-120150000D01*
X190498607Y-121750000D02*
G75*
G03*
X190498607Y-121750000I-223607J0D01*
G01*
X150225000Y-118575000D02*
X150225000Y-120150000D01*
X150223607Y-121725000D02*
G75*
G03*
X150223607Y-121725000I-223607J0D01*
G01*
X150223607Y-121098606D02*
G75*
G03*
X150223607Y-121098606I-223607J0D01*
G01*
X124475004Y-108035338D02*
G75*
G03*
X111725000Y-95125000I-12750004J159338D01*
G01*
X93734342Y-123775000D02*
X93734342Y-107975000D01*
X124475000Y-123784342D02*
X124475000Y-108035338D01*
X106575000Y-95975000D02*
G75*
G03*
X94575000Y-107975000I0J-12000000D01*
G01*
X106575000Y-95134342D02*
G75*
G03*
X93734342Y-107975000I0J-12840658D01*
G01*
X102075000Y-130550000D02*
G75*
G03*
X102075000Y-130550000I-1000000J0D01*
G01*
X110150000Y-133300000D02*
G75*
G03*
X110150000Y-133300000I-1000000J0D01*
G01*
X102100000Y-100950000D02*
G75*
G03*
X102100000Y-100950000I-1000000J0D01*
G01*
X108150000Y-95134342D02*
X108150000Y-95975000D01*
X109973607Y-95725000D02*
G75*
G03*
X109973607Y-95725000I-223607J0D01*
G01*
X109322213Y-136000000D02*
G75*
G03*
X109322213Y-136000000I-223607J0D01*
G01*
X109948607Y-136000000D02*
G75*
G03*
X109948607Y-136000000I-223607J0D01*
G01*
X106575000Y-135775000D02*
X108150000Y-135775000D01*
X110075000Y-95125000D02*
X111725000Y-95125000D01*
X118075000Y-100950000D02*
G75*
G03*
X118075000Y-100950000I-1000000J0D01*
G01*
X111575000Y-135775000D02*
G75*
G03*
X123575000Y-123775000I0J12000000D01*
G01*
X123575000Y-107975000D02*
G75*
G03*
X111575000Y-95975000I-12000000J0D01*
G01*
X93734342Y-123775000D02*
G75*
G03*
X106575000Y-136615658I12840658J0D01*
G01*
X108698607Y-136000000D02*
G75*
G03*
X108698607Y-136000000I-223607J0D01*
G01*
X106575000Y-95975000D02*
X108150000Y-95975000D01*
X118075000Y-130550000D02*
G75*
G03*
X118075000Y-130550000I-1000000J0D01*
G01*
X94575000Y-123775000D02*
G75*
G03*
X106575000Y-135775000I12000000J0D01*
G01*
X94575000Y-107975000D02*
X94575000Y-123775000D01*
X112075210Y-115775210D02*
G75*
G03*
X112075210Y-115775210I-3000210J0D01*
G01*
X123575000Y-107975000D02*
X123575000Y-123775000D01*
X110075000Y-135775000D02*
X111575000Y-135775000D01*
X111634342Y-136625000D02*
G75*
G03*
X124475000Y-123784342I-2J12840660D01*
G01*
X110075000Y-136625000D02*
X110075000Y-135775000D01*
X108150000Y-136615658D02*
X108150000Y-135775000D01*
X110075000Y-95975000D02*
X111575000Y-95975000D01*
X108723607Y-95725000D02*
G75*
G03*
X108723607Y-95725000I-223607J0D01*
G01*
X110100000Y-98275000D02*
G75*
G03*
X110100000Y-98275000I-1000000J0D01*
G01*
X111634342Y-136625000D02*
X110075000Y-136625000D01*
X108150000Y-136615658D02*
X106575000Y-136615658D01*
X106575000Y-95134342D02*
X108150000Y-95134342D01*
X109350001Y-95725000D02*
G75*
G03*
X109350001Y-95725000I-223607J0D01*
G01*
X110075000Y-95125000D02*
X110075000Y-95975000D01*
X147250000Y-124900001D02*
X146249999Y-124900001D01*
X140250210Y-125900000D02*
G75*
G03*
X140250210Y-125900000I-3000210J0D01*
G01*
X128250000Y-126900000D02*
G75*
G03*
X146249998Y-126900000I8999999J999999D01*
G01*
X146249999Y-124900001D02*
G75*
G03*
X128250001Y-124900000I-8999999J-999999D01*
G01*
X147249999Y-124900001D02*
G75*
G03*
X127250001Y-124900000I-9999999J-999999D01*
G01*
X127250003Y-126900000D02*
G75*
G03*
X147249997Y-126900001I9999997J1000000D01*
G01*
X128250001Y-124900000D02*
X127250000Y-124900000D01*
X128250000Y-126900000D02*
X127250000Y-126900000D01*
X146250000Y-126900000D02*
X147249999Y-126900000D01*
X146697213Y-125200000D02*
G75*
G03*
X146697213Y-125200000I-223607J0D01*
G01*
X146697213Y-125876394D02*
G75*
G03*
X146697213Y-125876394I-223607J0D01*
G01*
X146697213Y-126576394D02*
G75*
G03*
X146697213Y-126576394I-223607J0D01*
G01*
X128193607Y-125263606D02*
G75*
G03*
X128193607Y-125263606I-223607J0D01*
G01*
X128203607Y-126553606D02*
G75*
G03*
X128203607Y-126553606I-223607J0D01*
G01*
X128193607Y-125913606D02*
G75*
G03*
X128193607Y-125913606I-223607J0D01*
G01*
X151250000Y-103400001D02*
X150249999Y-103400001D01*
X144250210Y-104400000D02*
G75*
G03*
X144250210Y-104400000I-3000210J0D01*
G01*
X132250000Y-105400000D02*
G75*
G03*
X150249998Y-105400000I8999999J999999D01*
G01*
X150249999Y-103400001D02*
G75*
G03*
X132250001Y-103400000I-8999999J-999999D01*
G01*
X151249999Y-103400001D02*
G75*
G03*
X131250001Y-103400000I-9999999J-999999D01*
G01*
X131250003Y-105400000D02*
G75*
G03*
X151249997Y-105400001I9999997J1000000D01*
G01*
X132250001Y-103400000D02*
X131250000Y-103400000D01*
X132250000Y-105400000D02*
X131250000Y-105400000D01*
X150250000Y-105400000D02*
X151249999Y-105400000D01*
X150697213Y-103700000D02*
G75*
G03*
X150697213Y-103700000I-223607J0D01*
G01*
X150697213Y-104376394D02*
G75*
G03*
X150697213Y-104376394I-223607J0D01*
G01*
X150697213Y-105076394D02*
G75*
G03*
X150697213Y-105076394I-223607J0D01*
G01*
X132193607Y-103763606D02*
G75*
G03*
X132193607Y-103763606I-223607J0D01*
G01*
X132203607Y-105053606D02*
G75*
G03*
X132203607Y-105053606I-223607J0D01*
G01*
X132193607Y-104413606D02*
G75*
G03*
X132193607Y-104413606I-223607J0D01*
G01*
X106535338Y-39524996D02*
G75*
G03*
X93625000Y-52275000I-159338J-12750004D01*
G01*
X122275000Y-70265658D02*
X106475000Y-70265658D01*
X122284342Y-39525000D02*
X106535338Y-39525000D01*
X94475000Y-57425000D02*
G75*
G03*
X106475000Y-69425000I12000000J0D01*
G01*
X93634342Y-57425000D02*
G75*
G03*
X106475000Y-70265658I12840658J0D01*
G01*
X130050000Y-62925000D02*
G75*
G03*
X130050000Y-62925000I-1000000J0D01*
G01*
X132800000Y-54850000D02*
G75*
G03*
X132800000Y-54850000I-1000000J0D01*
G01*
X100450000Y-62900000D02*
G75*
G03*
X100450000Y-62900000I-1000000J0D01*
G01*
X93634342Y-55850000D02*
X94475000Y-55850000D01*
X94448607Y-54250000D02*
G75*
G03*
X94448607Y-54250000I-223607J0D01*
G01*
X134723607Y-54901394D02*
G75*
G03*
X134723607Y-54901394I-223607J0D01*
G01*
X134723607Y-54275000D02*
G75*
G03*
X134723607Y-54275000I-223607J0D01*
G01*
X134275000Y-57425000D02*
X134275000Y-55850000D01*
X93625000Y-53925000D02*
X93625000Y-52275000D01*
X100450000Y-46925000D02*
G75*
G03*
X100450000Y-46925000I-1000000J0D01*
G01*
X134275000Y-52425000D02*
G75*
G03*
X122275000Y-40425000I-12000000J0D01*
G01*
X106475000Y-40425000D02*
G75*
G03*
X94475000Y-52425000I0J-12000000D01*
G01*
X122275000Y-70265658D02*
G75*
G03*
X135115658Y-57425000I0J12840658D01*
G01*
X134723607Y-55525000D02*
G75*
G03*
X134723607Y-55525000I-223607J0D01*
G01*
X94475000Y-57425000D02*
X94475000Y-55850000D01*
X130050000Y-46925000D02*
G75*
G03*
X130050000Y-46925000I-1000000J0D01*
G01*
X122275000Y-69425000D02*
G75*
G03*
X134275000Y-57425000I0J12000000D01*
G01*
X106475000Y-69425000D02*
X122275000Y-69425000D01*
X117275420Y-54925000D02*
G75*
G03*
X117275420Y-54925000I-3000210J0D01*
G01*
X106475000Y-40425000D02*
X122275000Y-40425000D01*
X134275000Y-53925000D02*
X134275000Y-52425000D01*
X135125000Y-52365658D02*
G75*
G03*
X122284342Y-39525000I-12840660J-2D01*
G01*
X135125000Y-53925000D02*
X134275000Y-53925000D01*
X135115658Y-55850000D02*
X134275000Y-55850000D01*
X94475000Y-53925000D02*
X94475000Y-52425000D01*
X94448607Y-55500000D02*
G75*
G03*
X94448607Y-55500000I-223607J0D01*
G01*
X97775000Y-54900000D02*
G75*
G03*
X97775000Y-54900000I-1000000J0D01*
G01*
X135125000Y-52365658D02*
X135125000Y-53925000D01*
X135115658Y-55850000D02*
X135115658Y-57425000D01*
X93634342Y-57425000D02*
X93634342Y-55850000D01*
X94448607Y-54873606D02*
G75*
G03*
X94448607Y-54873606I-223607J0D01*
G01*
X93625000Y-53925000D02*
X94475000Y-53925000D01*
X152250000Y-70900001D02*
X151249999Y-70900001D01*
X145250210Y-71900000D02*
G75*
G03*
X145250210Y-71900000I-3000210J0D01*
G01*
X133250000Y-72900000D02*
G75*
G03*
X151249998Y-72900000I8999999J999999D01*
G01*
X151249999Y-70900001D02*
G75*
G03*
X133250001Y-70900000I-8999999J-999999D01*
G01*
X152249999Y-70900001D02*
G75*
G03*
X132250001Y-70900000I-9999999J-999999D01*
G01*
X132250003Y-72900000D02*
G75*
G03*
X152249997Y-72900001I9999997J1000000D01*
G01*
X133250001Y-70900000D02*
X132250000Y-70900000D01*
X133250000Y-72900000D02*
X132250000Y-72900000D01*
X151250000Y-72900000D02*
X152249999Y-72900000D01*
X151697213Y-71200000D02*
G75*
G03*
X151697213Y-71200000I-223607J0D01*
G01*
X151697213Y-71876394D02*
G75*
G03*
X151697213Y-71876394I-223607J0D01*
G01*
X151697213Y-72576394D02*
G75*
G03*
X151697213Y-72576394I-223607J0D01*
G01*
X133193607Y-71263606D02*
G75*
G03*
X133193607Y-71263606I-223607J0D01*
G01*
X133203607Y-72553606D02*
G75*
G03*
X133203607Y-72553606I-223607J0D01*
G01*
X133193607Y-71913606D02*
G75*
G03*
X133193607Y-71913606I-223607J0D01*
G01*
X113750000Y-81400001D02*
X112749999Y-81400001D01*
X106750210Y-82400000D02*
G75*
G03*
X106750210Y-82400000I-3000210J0D01*
G01*
X94750000Y-83400000D02*
G75*
G03*
X112749998Y-83400000I8999999J999999D01*
G01*
X112749999Y-81400001D02*
G75*
G03*
X94750001Y-81400000I-8999999J-999999D01*
G01*
X113749999Y-81400001D02*
G75*
G03*
X93750001Y-81400000I-9999999J-999999D01*
G01*
X93750003Y-83400000D02*
G75*
G03*
X113749997Y-83400001I9999997J1000000D01*
G01*
X94750001Y-81400000D02*
X93750000Y-81400000D01*
X94750000Y-83400000D02*
X93750000Y-83400000D01*
X112750000Y-83400000D02*
X113749999Y-83400000D01*
X113197213Y-81700000D02*
G75*
G03*
X113197213Y-81700000I-223607J0D01*
G01*
X113197213Y-82376394D02*
G75*
G03*
X113197213Y-82376394I-223607J0D01*
G01*
X113197213Y-83076394D02*
G75*
G03*
X113197213Y-83076394I-223607J0D01*
G01*
X94693607Y-81763606D02*
G75*
G03*
X94693607Y-81763606I-223607J0D01*
G01*
X94703607Y-83053606D02*
G75*
G03*
X94703607Y-83053606I-223607J0D01*
G01*
X94693607Y-82413606D02*
G75*
G03*
X94693607Y-82413606I-223607J0D01*
G01*
X135750000Y-86400001D02*
X134749999Y-86400001D01*
X128750210Y-87400000D02*
G75*
G03*
X128750210Y-87400000I-3000210J0D01*
G01*
X116750000Y-88400000D02*
G75*
G03*
X134749998Y-88400000I8999999J999999D01*
G01*
X134749999Y-86400001D02*
G75*
G03*
X116750001Y-86400000I-8999999J-999999D01*
G01*
X135749999Y-86400001D02*
G75*
G03*
X115750001Y-86400000I-9999999J-999999D01*
G01*
X115750003Y-88400000D02*
G75*
G03*
X135749997Y-88400001I9999997J1000000D01*
G01*
X116750001Y-86400000D02*
X115750000Y-86400000D01*
X116750000Y-88400000D02*
X115750000Y-88400000D01*
X134750000Y-88400000D02*
X135749999Y-88400000D01*
X135197213Y-86700000D02*
G75*
G03*
X135197213Y-86700000I-223607J0D01*
G01*
X135197213Y-87376394D02*
G75*
G03*
X135197213Y-87376394I-223607J0D01*
G01*
X135197213Y-88076394D02*
G75*
G03*
X135197213Y-88076394I-223607J0D01*
G01*
X116693607Y-86763606D02*
G75*
G03*
X116693607Y-86763606I-223607J0D01*
G01*
X116703607Y-88053606D02*
G75*
G03*
X116703607Y-88053606I-223607J0D01*
G01*
X116693607Y-87413606D02*
G75*
G03*
X116693607Y-87413606I-223607J0D01*
G01*
M02*
