M48
; DRILL file {KiCad 7.0.5-7.0.5~ubuntu22.04.1} date Wed 26 Feb 2025 12:57:42 GMT
; FORMAT={-:-/ absolute / inch / decimal}
; #@! TF.CreationDate,2025-02-26T12:57:42+00:00
; #@! TF.GenerationSoftware,Kicad,Pcbnew,7.0.5-7.0.5~ubuntu22.04.1
; #@! TF.FileFunction,Plated,1,2,PTH
FMAT,2
INCH
; #@! TA.AperFunction,Plated,PTH,ComponentDrill
T1C0.0300
; #@! TA.AperFunction,Plated,PTH,ComponentDrill
T2C0.0315
; #@! TA.AperFunction,Plated,PTH,ComponentDrill
T3C0.0787
%
G90
G05
T1
X4.2815Y-1.752
X4.7047Y-4.3406
X4.7047Y-4.7736
X4.7146Y-1.752
X6.4862Y-2.5787
X6.4862Y-3.878
X6.4862Y-5.1772
X6.9193Y-2.5787
X6.9193Y-3.878
X6.9193Y-5.1772
T2
X4.4006Y-1.6923
X4.5974Y-1.6923
X4.7644Y-4.4596
X4.7644Y-4.6565
X6.6033Y-2.6384
X6.6033Y-3.9376
X6.6033Y-5.2368
X6.8002Y-2.6384
X6.8002Y-3.9376
X6.8002Y-5.2368
T3
X4.0423Y-2.1624
X4.2943Y-4.1014
X4.2943Y-5.0148
X4.9557Y-2.1624
X6.2451Y-2.1683
X6.2451Y-3.4675
X6.2451Y-4.7667
X7.1585Y-2.1683
X7.1585Y-3.4675
X7.1585Y-4.7667
T0
M30
